<?xml version="1.0" encoding="utf-8"?>
<!-- Generator: Adobe Illustrator 25.0.1, SVG Export Plug-In . SVG Version: 6.00 Build 0)  -->
<svg version="1.1" id="Layer_1" xmlns:serif="http://www.serif.com/"
	 xmlns="http://www.w3.org/2000/svg" xmlns:xlink="http://www.w3.org/1999/xlink" x="0px" y="0px" viewBox="0 0 600 600"
	 style="enable-background:new 0 0 600 600;" xml:space="preserve">
<style type="text/css">
	.st0{fill:#A123A5;}
	.st1{fill:#511982;}
	.st2{fill:#1E051E;}
	.st3{fill:none;stroke:#1E051E;stroke-width:5;stroke-miterlimit:10;}
	
		.st4{fill-rule:evenodd;clip-rule:evenodd;fill:#FFFFFF;stroke:#000000;stroke-width:6.9588;stroke-linecap:round;stroke-linejoin:round;stroke-miterlimit:10;}
	
		.st5{fill-rule:evenodd;clip-rule:evenodd;fill:#FFFFFF;stroke:#000000;stroke-width:6.1771;stroke-linecap:round;stroke-linejoin:round;stroke-miterlimit:10;}
	.st6{fill-rule:evenodd;clip-rule:evenodd;fill:#FFFFFF;}
	.st7{clip-path:url(#SVGID_2_);}
	.st8{fill-rule:evenodd;clip-rule:evenodd;}
	.st9{fill:none;stroke:#000000;stroke-width:6.2857;stroke-linecap:round;stroke-linejoin:round;stroke-miterlimit:10;}
	.st10{fill:none;stroke:#000000;stroke-width:6.9588;stroke-linecap:round;stroke-linejoin:round;stroke-miterlimit:10;}
	
		.st11{fill-rule:evenodd;clip-rule:evenodd;stroke:#000000;stroke-width:6.2857;stroke-linecap:round;stroke-linejoin:round;stroke-miterlimit:10;}
	.st12{clip-path:url(#SVGID_4_);}
	.st13{fill-rule:evenodd;clip-rule:evenodd;fill:#930DF2;}
	.st14{fill:none;}
	.st15{clip-path:url(#SVGID_6_);}
	.st16{fill-rule:evenodd;clip-rule:evenodd;fill:#FF8AE9;}
	.st17{clip-path:url(#SVGID_8_);}
	.st18{clip-path:url(#SVGID_10_);}
	.st19{clip-path:url(#SVGID_12_);}
	.st20{clip-path:url(#SVGID_14_);}
	.st21{clip-path:url(#SVGID_16_);}
	.st22{clip-path:url(#SVGID_18_);}
	.st23{clip-path:url(#SVGID_20_);}
	.st24{clip-path:url(#SVGID_22_);}
	.st25{clip-path:url(#SVGID_24_);}
	.st26{clip-path:url(#SVGID_26_);}
	.st27{clip-path:url(#SVGID_28_);}
	.st28{clip-path:url(#SVGID_30_);}
	.st29{fill:none;stroke:#0A0311;stroke-width:8;stroke-miterlimit:10;}
</style>
<g>
	<g id="XMLID_1_">
		<g>
			<path class="st0" d="M536,127.6c1.8,1.4,4,3.1,4,4.7c0,1.4-2.6,3.3-4.7,3.9c-9.3,2.8-18.8,5.3-28.3,7.9
				c-71.2,19.4-142.4,38.7-213.5,58.1c-5.5,1.5-9.9,1.4-15.1-0.7c-52.9-20.7-106-41.2-159-61.8c-1.5-0.6-2.9-1.2-4.4-1.9
				c0-0.3,0-0.6,0-1c10-1.6,19.9-3.5,30-4.6c43-4.9,86.1-9.5,129.2-14.1c2.3-0.2,4.8,0.5,7.1,1c10.5,2.6,21,2.6,31.2-0.7
				c5.2-1.7,9.7-4.3,9.6-8.7c-0.1-4.6-4.7-7.2-10.2-8.9c-10.9-3.3-21.8-3.3-32.6,0.2c-2.2,0.7-5,1.7-6,3c-3.1,4.2-8.5,4.2-13.9,4.7
				c-43.6,4-87.2,7.7-130,15.1c-7.2,1.3-14.1,3.3-21.1,5.1c-2.5,0.7-5,1.3-7.5,1.9c-1.5,0.4-3.8,0.1-5.3-0.5
				c-10.4-3.9-20.7-7.8-30.8-12c-2.3-0.9-5.1-3.2-4.9-4.6c0.3-1.7,3.3-3.8,5.8-4.5c40.5-11.4,81-22.6,121.6-33.8
				c36.9-10.2,73.9-20.4,110.7-30.7c5.3-1.5,9.6-1.3,14.6,0.6c72.7,26.8,145.4,53.5,218.2,80.3C532.6,126.2,534.7,126.6,536,127.6z"
				/>
			<path class="st1" d="M448.9,166.1c0.2,17,0.5,34,0.4,51c0,2.1-1.5,4.7-3.6,6.2c-45.2,30.5-98.5,47-161.6,44.9
				c-43.7-1.5-81.1-14-113.1-34.8c-1.2-0.8-2.3-1.5-3.5-2.3c-16.7-11.2-16.7-11.2-16.7-27.5c0-14.9,0-29.8,0-44.6c0-1.3,0-2.7,0-4.7
				c7.4,2.8,13.8,5.3,20.1,7.7c35.7,13.9,71.5,27.6,107.1,41.6c5.3,2.1,10,2.3,15.6,0.7c49.9-13.7,99.8-27.2,149.8-40.8
				c1.5-0.4,3-0.7,5.1-1.3C448.6,163.7,448.9,164.9,448.9,166.1z"/>
			<path class="st2" d="M322.1,109.7c0.1,4.4-4.4,7-9.6,8.7c-10.2,3.3-20.6,3.3-31.2,0.7c-2.3-0.6-4.9-1.3-7.1-1
				c-43.1,4.6-86.2,9.3-129.2,14.1l-0.2-1.4c29.5-3.6,59-7.3,88.6-10.8c13.1-1.5,26.3-2.6,39.7-4c-1.5-2.2-2.8-4-4.2-6
				c-1.5,0.1-2.9,0-4.3,0.2c-32.4,3.3-64.9,6.2-97.1,10.1c-19,2.3-37.7,6.2-56.4,9.5c-0.8,0.1-1.5,0.3-2.2,0.5l-0.4-1.3
				c7-1.9,13.9-3.9,21.1-5.1c42.8-7.4,86.4-11.2,130-15.1c5.4-0.5,10.8-0.4,13.9-4.7c1-1.4,3.7-2.3,6-3c10.8-3.4,21.8-3.5,32.6-0.2
				C317.5,102.5,322.1,105.2,322.1,109.7z M314.5,115.3c6.4-3.4,6.8-8.2-0.1-11c-5.5-2.3-12-3.2-18.4-4.8
				c-6.5,1.6-12.9,2.6-18.3,4.7c-6.9,2.7-6.8,7.6-0.5,11.1C286.1,120.1,305.3,120.2,314.5,115.3z"/>
			<path class="st2" d="M314.3,104.3c6.9,2.8,6.6,7.6,0.1,11c-9.2,4.9-28.4,4.8-37.4-0.1c-6.2-3.4-6.4-8.4,0.5-11.1
				c5.4-2.1,11.8-3.1,18.3-4.7C302.3,101.1,308.8,102.1,314.3,104.3z"/>
			<path class="st2" d="M268.9,110.2c1.3,1.9,2.6,3.8,4.2,6c-13.4,1.3-26.6,2.4-39.7,4c-29.5,3.5-59,7.2-88.6,10.8
				c-7.4,0.9-14.9,1.8-22.3,2.6c-12.4,1.4-18.9,6-19.7,14.9c-1,10.5-2.3,21.1-3.2,31.6c-0.1,0.8,1.2,2,2.3,2.6
				c6.4,3.8,7.4,7.7,3.6,13c-0.6,0.8-0.7,2.1-0.4,3c1.6,4.7,4.2,9.4,4.9,14.2c1.3,9,1.5,18.1,2.2,27.3c-5.6,0.9-10.7,1.3-15.5,2.5
				c-5.9,1.4-9.6-1.8-15-2.6c1.1-13.6-0.9-27.4,4.2-40.9c0.3-0.9-0.2-2.2-0.9-3c-5-5.5-3.4-10.4,4-14c1.7-0.8,2.9-2.9,3.2-4.5
				c1.9-12.2,3.5-24.5,5.2-36.8c0.8-5.4,4.7-9,11.4-10.6c0.7-0.2,1.4-0.3,2.2-0.5c18.8-3.3,37.4-7.1,56.4-9.5
				c32.2-3.9,64.7-6.8,97.1-10.1C266,110.2,267.4,110.2,268.9,110.2z"/>
		</g>
		<g>
			<path class="st3" d="M108.5,129c-2.5,0.7-5,1.3-7.5,1.9c-1.5,0.4-3.8,0.1-5.3-0.5c-10.4-3.9-20.7-7.8-30.8-12
				c-2.3-0.9-5.1-3.2-4.9-4.6c0.3-1.7,3.3-3.8,5.8-4.5c40.5-11.4,81-22.6,121.6-33.8c36.9-10.2,73.9-20.4,110.7-30.7
				c5.3-1.5,9.6-1.3,14.6,0.6c72.7,26.8,145.4,53.5,218.2,80.3c1.7,0.6,3.8,1.1,5.1,2c1.8,1.4,4,3.1,4,4.7c0,1.4-2.6,3.3-4.7,3.9
				c-9.3,2.8-18.8,5.3-28.3,7.9c-71.2,19.4-142.4,38.7-213.5,58.1c-5.5,1.5-9.9,1.4-15.1-0.7c-52.9-20.7-106-41.2-159-61.8
				c-1.5-0.6-2.9-1.2-4.4-1.9c0-0.3,0-0.6,0-1c10-1.6,19.9-3.5,30-4.6c43-4.9,86.1-9.5,129.2-14.1c2.3-0.2,4.8,0.5,7.1,1
				c10.5,2.6,21,2.6,31.2-0.7c5.2-1.7,9.7-4.3,9.6-8.7c-0.1-4.6-4.7-7.2-10.2-8.9c-10.9-3.3-21.8-3.3-32.6,0.2c-2.2,0.7-5,1.7-6,3
				c-3.1,4.2-8.5,4.2-13.9,4.7c-43.6,4-87.2,7.7-130,15.1C122.4,125.1,115.5,127.2,108.5,129z"/>
			<path class="st3" d="M144.9,130.9c-7.4,0.9-14.9,1.8-22.3,2.6c-12.4,1.4-18.9,6-19.7,14.9c-1,10.5-2.3,21.1-3.2,31.6
				c-0.1,0.8,1.2,2,2.3,2.6c6.4,3.8,7.4,7.7,3.6,13c-0.6,0.8-0.7,2.1-0.4,3c1.6,4.7,4.2,9.4,4.9,14.2c1.3,9,1.5,18.1,2.2,27.3
				c-5.6,0.9-10.7,1.3-15.5,2.5c-5.9,1.4-9.6-1.8-15-2.6c1.1-13.6-0.9-27.4,4.2-40.9c0.3-0.9-0.2-2.2-0.9-3c-5-5.5-3.4-10.4,4-14
				c1.7-0.8,2.9-2.9,3.2-4.5c1.9-12.2,3.5-24.5,5.2-36.8c0.8-5.4,4.7-9,11.4-10.6c0.7-0.2,1.4-0.3,2.2-0.5
				c18.8-3.3,37.4-7.1,56.4-9.5c32.2-3.9,64.7-6.8,97.1-10.1c1.4-0.1,2.8-0.1,4.3-0.2c1.3,1.9,2.6,3.8,4.2,6
				c-13.4,1.3-26.6,2.4-39.7,4C203.9,123.6,174.4,127.3,144.9,130.9z"/>
		</g>
	</g>
</g>
<g>
	<g>
		<g>
			<g>
				<g>
					<path class="st4" d="M205,259.9l-34.7,17.3c-15.9,40.2-11.8,20.4-38.1,142.1c52.3,136.9,51.4,103.9,135.7,150.2
						C218.3,503,214.2,416.1,205,259.9L205,259.9L205,259.9z"/>
					<path class="st4" d="M176.6,259.9l-34.7,17.3c-15.9,40.2-11.8,20.4-38.1,142.1c74.9,125.6,62.4,98.4,135.7,150.2
						C189.8,503,185.7,416.1,176.6,259.9L176.6,259.9L176.6,259.9z"/>
					<path class="st5" d="M187.9,333.3L157,447.1c23.1,23.1,0,32.7,0,74.1c41.6-12.8,119.5,51.7,139.9,40.9L187.9,333.3"/>
					<path class="st5" d="M160.1,305.5l-30.9,113.8c23.1,23.1,10.2,32.7,10.2,74.1c43.2-24.9,65.6,36.6,102.9,53
						c18.7,8.2,36.6,15.6,54.6,23.1L160.1,305.5"/>
				</g>
				<g>
					<path class="st4" d="M387.4,259.9l34.7,17.3c15.9,40.2,11.8,20.4,38.1,142.1c-52.3,136.9-51.4,103.9-135.7,150.2
						C374.2,503,378.2,416.1,387.4,259.9L387.4,259.9L387.4,259.9z"/>
					<path class="st4" d="M415.9,259.9l34.7,17.3c15.9,40.2,11.8,20.4,38.1,142.1c-74.9,125.6-62.4,98.4-135.7,150.2
						C402.7,503,406.7,416.1,415.9,259.9L415.9,259.9L415.9,259.9z"/>
					<path class="st5" d="M404.5,333.3l30.9,113.8c-23.1,23.1,0,32.7,0,74.1c-41.6-12.8-119.5,51.7-139.9,40.9L404.5,333.3"/>
					<path class="st5" d="M432.3,305.5l30.9,113.8C440.2,442.3,453,452,453,493.4c-43.2-24.9-65.6,36.6-102.9,53
						c-18.7,8.2-36.6,15.6-54.6,23.1L432.3,305.5"/>
				</g>
			</g>
			<g>
				<path class="st6" d="M158.8,260.1l19.9-30.6l51.2-8.2c7.1-6,11.3-10.4,28.5-4.6l37.4-4.8l44.1,4.7c9.4-5.6,18.7-3.8,28.1,1.6
					l83.7,58.9l-5.9,23.6c3,18.6,5.3,29.9,8.8,56.2l2.9,61.8c-38.9,21.9-71.1,57.3-68.2,74.7c-4,28.7-16.3,49.3-40.2,58.8
					c-20.4,1.7-36.6,7.7-49.1,17.3c-10.3-10.3-25.8-15.5-44.1-17.8c-24.5-8.8-41.8-27.3-43.9-58.3c-0.4-4.6-3.6-10.6-8.6-17.1
					c-17-22.2-54.2-51-69.5-57l7-61.5c8.1-55.2,7.4-53.6,7.4-54.1l-5.2-17.1L158.8,260.1"/>
				<g>
					<g>
						<defs>
							<path id="SVGID_1_" d="M158.8,260.1l19.9-30.6l51.2-8.2c7.1-6,11.3-10.4,28.5-4.6l37.4-4.8l44.1,4.7
								c9.4-5.6,18.7-3.8,28.1,1.6l83.7,58.9l-5.9,23.6c3,18.6,5.3,29.9,8.8,56.2l2.9,61.8c-38.9,21.9-71.1,57.3-68.2,74.7
								c-4,28.7-16.3,49.3-40.2,58.8c-20.4,1.7-36.6,7.7-49.1,17.3c-10.3-10.3-25.8-15.5-44.1-17.8c-24.5-8.8-41.8-27.3-43.9-58.3
								c-0.4-4.6-3.6-10.6-8.6-17.1c-17-22.2-54.2-51-69.5-57l7-61.5c8.1-55.2,7.4-53.6,7.4-54.1l-5.2-17.1L158.8,260.1"/>
						</defs>
						<clipPath id="SVGID_2_">
							<use xlink:href="#SVGID_1_"  style="overflow:visible;"/>
						</clipPath>
						<g class="st7">
							<g>
								<path class="st8" d="M157.1,393.5l45.3,23.1l-68.5-11.4l4.9-55.3L157.1,393.5"/>
								<path class="st8" d="M164.5,356l42.4,37.5l-73-33l26.5-54.1L164.5,356"/>
							</g>
							<g>
								<path class="st8" d="M438,393.5l-45.3,23.1l68.5-11.4l-4.9-55.3L438,393.5"/>
								<path class="st8" d="M430.5,356l-42.4,37.5l73-33l-26.5-54.1L430.5,356"/>
							</g>
							<g>
								<path class="st9" d="M299.2,479v32.5"/>
								<path class="st10" d="M299.2,511.5l45.7,11.5c19.3-6.8,38.9-21.1,51.5-46.1"/>
								<path class="st10" d="M297.4,511.5L251.7,523c-20.2-2-40-30.8-50.3-46.1"/>
							</g>
							<g>
								<path class="st8" d="M141.6,294c42.9-32.6,58.5-38.1,108.5-31.9c-54.3,6.1-87.2,32.8-104.8,59.9L141.6,294"/>
								<path class="st8" d="M451.6,294c-42.9-32.6-58.5-38.1-108.5-31.9c54.3,6.1,87.2,32.8,104.8,59.9L451.6,294"/>
							</g>
							<g>
								<path class="st8" d="M203.1,213c25.7,29.9,35,34.9,64.8,29.2c-32.4-5.6-52.1-30.1-62.6-54.9L203.1,213"/>
								<path class="st8" d="M388.4,213c-25.7,29.9-35,34.9-64.8,29.2c32.4-5.6,52.1-30.1,62.6-54.9L388.4,213"/>
							</g>
							<g>
								<path class="st8" d="M95.9,285.6c55.4-32.6,75.5-38.1,139.9-31.9c-70,6.1-112.5,32.8-135.1,59.9L95.9,285.6"/>
								<path class="st8" d="M495.6,285.6c-55.4-32.6-75.5-38.1-139.9-31.9c70,6.1,112.5,32.8,135.1,59.9L495.6,285.6"/>
							</g>
							<ellipse class="st8" cx="255.9" cy="313.2" rx="10.5" ry="7.9"/>
							<ellipse class="st8" cx="336.5" cy="313.2" rx="10.5" ry="7.9"/>
						</g>
					</g>
				</g>
				<path class="st9" d="M158.8,260.1l19.9-30.6l51.2-8.2c7.1-6,11.3-10.4,28.5-4.6l37.4-4.8l44.1,4.7c9.4-5.6,18.7-3.8,28.1,1.6
					l83.7,58.9l-5.9,23.6c3,18.6,5.3,29.9,8.8,56.2l2.9,61.8c-38.9,21.9-71.1,57.3-68.2,74.7c-4,28.7-16.3,49.3-40.2,58.8
					c-20.4,1.7-36.6,7.7-49.1,17.3c-10.3-10.3-25.8-15.5-44.1-17.8c-24.5-8.8-41.8-27.3-43.9-58.3c-0.4-4.6-3.6-10.6-8.6-17.1
					c-17-22.2-54.2-51-69.5-57l7-61.5c8.1-55.2,7.4-53.6,7.4-54.1l-5.2-17.1L158.8,260.1"/>
				<g>
					<path class="st11" d="M258.3,448.5c6.3,1,0-7.8,40,8.8c40.1-16.6,30.7-7.7,46.1-10.7c0.3,2.4-6.8,8.6-19.4,16.6
						c-6.6,0.3-9.5,4.2-9.5,11.4l-16.4,12.2L285,474.6c0-5-5.6-10.8-11.9-10.8C258.8,455.7,250.8,451,258.3,448.5"/>
					<g>
						<path class="st8" d="M423.1,322.5c-53.4-8-66-3.9-72.4,10.7c-3,6.9-6,10.4-8.7,32.4c7.3-11.4,15.8-9.1,26.4-4.9
							c6.1,2.4,28.2-3.3,29.9-24.8c0.3-3.6,4.8-3.7,5.7-7.5C409,324.2,414.2,324.7,423.1,322.5"/>
						<g>
							<g>
								<defs>
									<path id="SVGID_3_" d="M423.1,322.5c-53.4-8-66-3.9-72.4,10.7c-3,6.9-6,10.4-8.7,32.4c7.3-11.4,15.8-9.1,26.4-4.9
										c6.1,2.4,28.2-3.3,29.9-24.8c0.3-3.6,4.8-3.7,5.7-7.5C409,324.2,414.2,324.7,423.1,322.5"/>
								</defs>
								<clipPath id="SVGID_4_">
									<use xlink:href="#SVGID_3_"  style="overflow:visible;"/>
								</clipPath>
								<g class="st12">
									<g>
										<ellipse class="st13" cx="364.8" cy="336.2" rx="17.5" ry="16.4"/>
										<ellipse class="st8" cx="364.8" cy="336.2" rx="9.5" ry="8.8"/>
									</g>
									<path class="st14" d="M373.4,318.5l31.2-18.8"/>
								</g>
							</g>
						</g>
						<path class="st9" d="M423.1,322.5c-53.4-8-66-3.9-72.4,10.7c-3,6.9-6,10.4-8.7,32.4c7.3-11.4,15.8-9.1,26.4-4.9
							c6.1,2.4,28.2-3.3,29.9-24.8c0.3-3.6,4.8-3.7,5.7-7.5C409,324.2,414.2,324.7,423.1,322.5"/>
						<path class="st8" d="M175.9,323.4c53.4-8,66-3.9,72.4,10.7c3,6.9,6.6,11.2,8.7,32.4c-7.3-11.4-15.8-9.1-26.4-4.9
							c-6.1,2.4-28.2-3.3-29.9-24.8c-0.3-3.6-4.8-3.7-5.7-7.5C190,325,184.8,325.6,175.9,323.4"/>
						<g>
							<g>
								<defs>
									<path id="SVGID_5_" d="M175.9,323.4c53.4-8,66-3.9,72.4,10.7c3,6.9,6.6,11.2,8.7,32.4c-7.3-11.4-15.8-9.1-26.4-4.9
										c-6.1,2.4-28.2-3.3-29.9-24.8c-0.3-3.6-4.8-3.7-5.7-7.5C190,325,184.8,325.6,175.9,323.4"/>
								</defs>
								<clipPath id="SVGID_6_">
									<use xlink:href="#SVGID_5_"  style="overflow:visible;"/>
								</clipPath>
								<g class="st15">
									<g>
										<ellipse class="st13" cx="234.1" cy="336.2" rx="17.5" ry="16.4"/>
										<ellipse class="st8" cx="234.1" cy="336.2" rx="9.5" ry="8.8"/>
									</g>
								</g>
							</g>
						</g>
						<path class="st9" d="M175.9,323.4c53.4-8,66-3.9,72.4,10.7c3,6.9,6.6,11.2,8.7,32.4c-7.3-11.4-15.8-9.1-26.4-4.9
							c-6.1,2.4-28.2-3.3-29.9-24.8c-0.3-3.6-4.8-3.7-5.7-7.5C190,325,184.8,325.6,175.9,323.4"/>
					</g>
					<g>
						<path class="st8" d="M242.4,359.9c6.4,0.7,11.7,4.9,14.9,12.7c1.7,4.1,2.9,9.2,3.5,15.1c0.5,5.3,0.6,11.3,0,17.9
							c-0.4,3.8-0.9,7.7-1.9,11.9c-1.9,8.8-5.3,18.2-9.3,28.7c0.3,2.5,1.7,4.9,3.9,5.5c2.3,0.6,4.6-0.7,5.2-3l0.9,0.3
							c1.5-9.1,2.5-17.4,3.2-25.1c0.4-3.8,0.6-7.3,1-10.8c0.5-5.1,0.9-9.9,1.1-14.3c0.4-8.5,0-15.7-1.1-21.8
							c-2.7-15-10-23.1-20.1-25.5c-2.3-0.4-4.5,1.1-4.9,3.4C238.5,357.2,240.1,359.4,242.4,359.9L242.4,359.9z"/>
						<path class="st8" d="M352.8,351.7c-8.1,4-13.8,10.7-17,20c-1.7,4.8-2.8,10.3-3.2,16.5c-0.4,5.6-0.2,11.8,0.4,18.5
							c0.3,3.9,0.8,7.9,1.3,12.2c1.1,9.4,2.5,19.5,5.1,30.4c1.7,1.9,4.1,3.1,6.3,2.3c2.2-0.8,3.4-3.2,2.7-5.4l0.9-0.3
							c-4.5-9.9-8.3-19-10.5-27.9c-1-4-1.7-8-2.1-11.7c-0.7-6.4-0.6-12.3,0.1-17.7c0.9-7.1,2.8-13.2,5.7-18.1
							c3.2-5.3,7.8-9,13.5-10.9c2.2-0.9,3.2-3.4,2.3-5.6C357.5,351.8,355,350.8,352.8,351.7z"/>
					</g>
				</g>
				<g>
					<path class="st16" d="M151.2,171.4c11.5-2.5,14.3-0.6,26.8,3.7c13.4,26.3,30.8,38.7,50.8,41.8l3.8,16.1
						c-28.3,0.3-91,50.5-91,50.5c-9.4-34.7-20.2-66.1-8.4-83.6c4.6-6.8,7-12.2,7.5-16.2C141.6,177.8,147.3,174.3,151.2,171.4"/>
					<g>
						<g>
							<defs>
								<path id="SVGID_7_" d="M151.2,171.4c11.5-2.5,14.3-0.6,26.8,3.7c13.4,26.3,30.8,38.7,50.8,41.8l3.8,16.1
									c-28.3,0.3-91,50.5-91,50.5c-9.4-34.7-20.2-66.1-8.4-83.6c4.6-6.8,7-12.2,7.5-16.2C141.6,177.8,147.3,174.3,151.2,171.4"/>
							</defs>
							<clipPath id="SVGID_8_">
								<use xlink:href="#SVGID_7_"  style="overflow:visible;"/>
							</clipPath>
							<g class="st17">
								<path class="st6" d="M52.8,227.5l86.1-74.6l88.2,18.5l7.1,130.5l-43.1-35.2c6.3-44.5-8.9-76.3-45.9-95.3L52.8,227.5"/>
								<path class="st8" d="M69.3,217.6l76.1-45.5c18.6,9.7,31.6,22.7,38.9,39c7,15.5,8.9,34,5.7,55.4c-0.1,0.4,0.1,0.9,0.4,1.1
									l42.9,35.5c0.5,0.4,1.1,0.5,1.7,0.2c0.6-0.3,0.9-0.9,0.9-1.5l-6.3-130.5c-0.1-1-0.8-1.9-1.8-2.1l-88.1-19
									c-0.9-0.2-1.7,0.1-2.4,0.6l-86.5,74.1c-1.4,1.2-1.6,3.4-0.3,4.8c1.2,1.4,3.4,1.6,4.8,0.3L69.3,217.6L69.3,217.6z
									 M70.2,216.8l74.8-45.9c0.2-0.1,0.4-0.1,0.6,0c19.2,9.7,32.6,22.9,40.3,39.5c7.2,15.6,9.4,34.2,6.6,55.8l40,32.3L225,173.3
									l-85.3-17.4L70.2,216.8L70.2,216.8z"/>
							</g>
						</g>
					</g>
					<path class="st9" d="M151.2,171.4c11.5-2.5,14.3-0.6,26.8,3.7c13.4,26.3,30.8,38.7,50.8,41.8l3.8,16.1
						c-28.3,0.3-91,50.5-91,50.5c-9.4-34.7-20.2-66.1-8.4-83.6c4.6-6.8,7-12.2,7.5-16.2C141.6,177.8,147.3,174.3,151.2,171.4"/>
					<path class="st16" d="M440.2,171.4c-9.2,3-11.1,7-26.8,3.7c-9.4,17.7-24.9,32.4-50.8,41.8l-3.8,16.1c28.3,0.3,91,50.5,91,50.5
						C466.3,227.7,465.7,188,440.2,171.4"/>
					<g>
						<g>
							<defs>
								<path id="SVGID_9_" d="M440.2,171.4c-9.2,3-11.1,7-26.8,3.7c-9.4,17.7-24.9,32.4-50.8,41.8l-3.8,16.1
									c28.3,0.3,91,50.5,91,50.5C466.3,227.7,465.7,188,440.2,171.4"/>
							</defs>
							<clipPath id="SVGID_10_">
								<use xlink:href="#SVGID_9_"  style="overflow:visible;"/>
							</clipPath>
							<g class="st18">
								<path class="st6" d="M537.3,227.5l-85.5-74.6l-87.6,18.5l-7,130.5l42.8-35.2c-6.3-44.5,8.8-76.3,45.5-95.3L537.3,227.5"/>
								<path class="st8" d="M520.9,217.6L535,230c1.4,1.2,3.6,1.1,4.8-0.3c1.2-1.4,1.1-3.6-0.3-4.8l-86-74.1
									c-0.7-0.6-1.6-0.8-2.4-0.6l-87.5,19c-1,0.2-1.8,1.1-1.8,2.1l-6.3,130.5c0,0.6,0.3,1.2,0.9,1.5c0.6,0.3,1.2,0.2,1.7-0.2
									l42.6-35.5c0.3-0.3,0.5-0.7,0.4-1.1c-3.1-21.4-1.3-39.8,5.6-55.3c7.3-16.3,20.2-29.4,38.7-39.1L520.9,217.6L520.9,217.6z
									 M519.9,216.8l-69-60.9l-84.7,17.4l-7.4,125.2c0,0,39.7-32.3,39.7-32.3c-2.8-21.6-0.7-40.1,6.5-55.7
									c7.6-16.6,21-29.8,40.1-39.6c0.2-0.1,0.4-0.1,0.6,0L519.9,216.8L519.9,216.8z"/>
								<path class="st6" d="M318.3,226.2l101.7-75.3l81.6,39.4l-24.1,161.4l-33.6-51.3c16.7-53.4,9.4-95.3-22.1-125.5L318.3,226.2"
									/>
								<path class="st8" d="M334.9,218l86.8-42.5c16.6,16.2,26.3,35.7,29.1,58.4c2.4,19.6-0.3,41.6-8.1,66
									c-0.1,0.4-0.1,0.7,0.1,1.1l33.4,51.5c0.4,0.5,1,0.8,1.6,0.7c0.6-0.1,1.1-0.6,1.2-1.3l24.9-161.3c0.2-1-0.4-2-1.3-2.5
									l-81.5-39.8c-0.9-0.5-2.1-0.3-2.9,0.3l-102,74.8c-1.5,1.1-1.8,3.3-0.7,4.8c1.1,1.5,3.3,1.8,4.8,0.7L334.9,218L334.9,218z
									 M335.7,217.4l85.8-43.1c0.2-0.1,0.5-0.1,0.7,0.1c17.2,16.3,27.3,36.1,30.4,59.3c2.6,19.7,0.2,41.8-7.3,66.4l31.3,47.3
									c3.3-23.2,20.2-140.1,22.4-155.8l-78.7-37.5L335.7,217.4L335.7,217.4z"/>
							</g>
						</g>
					</g>
					<path class="st9" d="M440.2,171.4c-9.2,3-11.1,7-26.8,3.7c-9.4,17.7-24.9,32.4-50.8,41.8l-3.8,16.1c28.3,0.3,91,50.5,91,50.5
						C466.3,227.7,465.7,188,440.2,171.4"/>
				</g>
			</g>
			<g>
				<g>
					<g>
						<path class="st8" d="M320.3,490.2c0.7-0.2,1.5,0.2,1.7,0.9c0.2,0.7-0.2,1.4-0.9,1.6c-0.7,0.2-1.5-0.2-1.7-0.9
							C319.2,491.2,319.6,490.4,320.3,490.2L320.3,490.2z"/>
						<path class="st8" d="M329.9,485.6c0.7-0.2,1.5,0.2,1.7,0.9c0.2,0.7-0.2,1.4-0.9,1.6c-0.7,0.2-1.5-0.2-1.7-0.9
							C328.8,486.5,329.2,485.8,329.9,485.6z"/>
						<path class="st8" d="M339.3,482.1c0.7-0.2,1.5,0.2,1.7,0.9c0.2,0.7-0.2,1.4-0.9,1.6c-0.7,0.2-1.5-0.2-1.7-0.9
							S338.6,482.3,339.3,482.1z"/>
						<path class="st8" d="M345.6,479.4c0.7-0.2,1.5,0.2,1.7,0.9c0.2,0.7-0.2,1.4-0.9,1.6c-0.7,0.2-1.5-0.2-1.7-0.9
							C344.5,480.3,344.9,479.5,345.6,479.4z"/>
						<path class="st8" d="M352.3,477c0.7-0.2,1.5,0.2,1.7,0.9c0.2,0.7-0.2,1.4-0.9,1.6c-0.7,0.2-1.5-0.2-1.7-0.9
							C351.2,477.9,351.6,477.2,352.3,477z"/>
					</g>
					<g>
						<path class="st8" d="M324.4,498.2c0.7-0.2,1.5,0.2,1.7,0.9c0.2,0.7-0.2,1.4-0.9,1.6c-0.7,0.2-1.5-0.2-1.7-0.9
							C323.3,499.1,323.7,498.4,324.4,498.2z"/>
						<path class="st8" d="M334,493.6c0.7-0.2,1.5,0.2,1.7,0.9c0.2,0.7-0.2,1.4-0.9,1.6c-0.7,0.2-1.5-0.2-1.7-0.9
							C332.9,494.5,333.3,493.8,334,493.6L334,493.6z"/>
						<path class="st8" d="M343.4,490c0.7-0.2,1.5,0.2,1.7,0.9c0.2,0.7-0.2,1.4-0.9,1.6c-0.7,0.2-1.5-0.2-1.7-0.9
							C342.3,491,342.7,490.2,343.4,490z"/>
						<path class="st8" d="M349.7,487.3c0.7-0.2,1.5,0.2,1.7,0.9c0.2,0.7-0.2,1.4-0.9,1.6c-0.7,0.2-1.5-0.2-1.7-0.9
							C348.6,488.2,349,487.5,349.7,487.3L349.7,487.3z"/>
						<path class="st8" d="M356.5,484.9c0.7-0.2,1.5,0.2,1.7,0.9c0.2,0.7-0.2,1.4-0.9,1.6c-0.7,0.2-1.5-0.2-1.7-0.9
							C355.4,485.8,355.8,485.1,356.5,484.9z"/>
					</g>
					<g>
						<path class="st8" d="M328.9,506.8c0.7-0.2,1.5,0.2,1.7,0.9c0.2,0.7-0.2,1.4-0.9,1.6c-0.7,0.2-1.5-0.2-1.7-0.9
							C327.8,507.7,328.2,507,328.9,506.8L328.9,506.8z"/>
						<path class="st8" d="M338.5,502.2c0.7-0.2,1.5,0.2,1.7,0.9c0.2,0.7-0.2,1.4-0.9,1.6c-0.7,0.2-1.5-0.2-1.7-0.9
							C337.4,503.1,337.8,502.4,338.5,502.2z"/>
						<path class="st8" d="M347.9,498.7c0.7-0.2,1.5,0.2,1.7,0.9c0.2,0.7-0.2,1.4-0.9,1.6c-0.7,0.2-1.5-0.2-1.7-0.9
							C346.8,499.6,347.2,498.9,347.9,498.7z"/>
						<path class="st8" d="M354.2,495.9c0.7-0.2,1.5,0.2,1.7,0.9c0.2,0.7-0.2,1.4-0.9,1.6c-0.7,0.2-1.5-0.2-1.7-0.9
							C353.1,496.9,353.5,496.1,354.2,495.9z"/>
						<path class="st8" d="M361,493.6c0.7-0.2,1.5,0.2,1.7,0.9c0.2,0.7-0.2,1.4-0.9,1.6c-0.7,0.2-1.5-0.2-1.7-0.9
							C359.8,494.5,360.2,493.7,361,493.6z"/>
					</g>
				</g>
				<g>
					<g>
						<path class="st8" d="M279.5,490.2c-0.7-0.2-1.5,0.2-1.7,0.9c-0.2,0.7,0.2,1.4,0.9,1.6c0.7,0.2,1.5-0.2,1.7-0.9
							C280.7,491.2,280.3,490.4,279.5,490.2z"/>
						<path class="st8" d="M269.9,485.6c-0.7-0.2-1.5,0.2-1.7,0.9c-0.2,0.7,0.2,1.4,0.9,1.6c0.7,0.2,1.5-0.2,1.7-0.9
							C271,486.5,270.6,485.8,269.9,485.6z"/>
						<path class="st8" d="M260.5,482.1c-0.7-0.2-1.5,0.2-1.7,0.9c-0.2,0.7,0.2,1.4,0.9,1.6c0.7,0.2,1.5-0.2,1.7-0.9
							C261.6,483,261.2,482.3,260.5,482.1z"/>
						<path class="st8" d="M254.2,479.4c-0.7-0.2-1.5,0.2-1.7,0.9c-0.2,0.7,0.2,1.4,0.9,1.6c0.7,0.2,1.5-0.2,1.7-0.9
							C255.3,480.3,254.9,479.5,254.2,479.4L254.2,479.4z"/>
						<path class="st8" d="M247.5,477c-0.7-0.2-1.5,0.2-1.7,0.9c-0.2,0.7,0.2,1.4,0.9,1.6c0.7,0.2,1.5-0.2,1.7-0.9
							C248.6,477.9,248.2,477.2,247.5,477L247.5,477z"/>
					</g>
					<g>
						<path class="st8" d="M275.4,498.2c-0.7-0.2-1.5,0.2-1.7,0.9c-0.2,0.7,0.2,1.4,0.9,1.6c0.7,0.2,1.5-0.2,1.7-0.9
							C276.5,499.1,276.1,498.4,275.4,498.2L275.4,498.2z"/>
						<path class="st8" d="M265.8,493.6c-0.7-0.2-1.5,0.2-1.7,0.9c-0.2,0.7,0.2,1.4,0.9,1.6c0.7,0.2,1.5-0.2,1.7-0.9
							C266.9,494.5,266.5,493.8,265.8,493.6z"/>
						<path class="st8" d="M256.4,490c-0.7-0.2-1.5,0.2-1.7,0.9c-0.2,0.7,0.2,1.4,0.9,1.6c0.7,0.2,1.5-0.2,1.7-0.9
							C257.5,491,257.1,490.2,256.4,490z"/>
						<path class="st8" d="M250.1,487.3c-0.7-0.2-1.5,0.2-1.7,0.9c-0.2,0.7,0.2,1.4,0.9,1.6c0.7,0.2,1.5-0.2,1.7-0.9
							C251.2,488.2,250.8,487.5,250.1,487.3z"/>
						<path class="st8" d="M243.3,484.9c-0.7-0.2-1.5,0.2-1.7,0.9c-0.2,0.7,0.2,1.4,0.9,1.6c0.7,0.2,1.5-0.2,1.7-0.9
							C244.4,485.8,244,485.1,243.3,484.9z"/>
					</g>
					<g>
						<path class="st8" d="M270.9,506.8c-0.7-0.2-1.5,0.2-1.7,0.9c-0.2,0.7,0.2,1.4,0.9,1.6c0.7,0.2,1.5-0.2,1.7-0.9
							C272,507.7,271.6,507,270.9,506.8z"/>
						<path class="st8" d="M261.3,502.2c-0.7-0.2-1.5,0.2-1.7,0.9c-0.2,0.7,0.2,1.4,0.9,1.6c0.7,0.2,1.5-0.2,1.7-0.9
							C262.4,503.1,262,502.4,261.3,502.2z"/>
						<path class="st8" d="M251.9,498.7c-0.7-0.2-1.5,0.2-1.7,0.9c-0.2,0.7,0.2,1.4,0.9,1.6c0.7,0.2,1.5-0.2,1.7-0.9
							C253,499.6,252.6,498.9,251.9,498.7z"/>
						<path class="st8" d="M245.6,495.9c-0.7-0.2-1.5,0.2-1.7,0.9c-0.2,0.7,0.2,1.4,0.9,1.6c0.7,0.2,1.5-0.2,1.7-0.9
							C246.7,496.9,246.3,496.1,245.6,495.9L245.6,495.9z"/>
						<path class="st8" d="M238.8,493.6c-0.7-0.2-1.5,0.2-1.7,0.9c-0.2,0.7,0.2,1.4,0.9,1.6c0.7,0.2,1.5-0.2,1.7-0.9
							C240,494.5,239.6,493.7,238.8,493.6L238.8,493.6z"/>
					</g>
				</g>
			</g>
		</g>
	</g>
	<g>
		<g>
			<g>
				<g>
					<path class="st4" d="M205,259.9l-34.7,17.3c-15.9,40.2-11.8,20.4-38.1,142.1c52.3,136.9,51.4,103.9,135.7,150.2
						C218.3,503,214.2,416.1,205,259.9L205,259.9L205,259.9z"/>
					<path class="st4" d="M176.6,259.9l-34.7,17.3c-15.9,40.2-11.8,20.4-38.1,142.1c74.9,125.6,62.4,98.4,135.7,150.2
						C189.8,503,185.7,416.1,176.6,259.9L176.6,259.9L176.6,259.9z"/>
					<path class="st5" d="M187.9,333.3L157,447.1c23.1,23.1,0,32.7,0,74.1c41.6-12.8,119.5,51.7,139.9,40.9L187.9,333.3"/>
					<path class="st5" d="M160.1,305.5l-30.9,113.8c23.1,23.1,10.2,32.7,10.2,74.1c43.2-24.9,65.6,36.6,102.9,53
						c18.7,8.2,36.6,15.6,54.6,23.1L160.1,305.5"/>
				</g>
				<g>
					<path class="st4" d="M387.4,259.9l34.7,17.3c15.9,40.2,11.8,20.4,38.1,142.1c-52.3,136.9-51.4,103.9-135.7,150.2
						C374.2,503,378.2,416.1,387.4,259.9L387.4,259.9L387.4,259.9z"/>
					<path class="st4" d="M415.9,259.9l34.7,17.3c15.9,40.2,11.8,20.4,38.1,142.1c-74.9,125.6-62.4,98.4-135.7,150.2
						C402.7,503,406.7,416.1,415.9,259.9L415.9,259.9L415.9,259.9z"/>
					<path class="st5" d="M404.5,333.3l30.9,113.8c-23.1,23.1,0,32.7,0,74.1c-41.6-12.8-119.5,51.7-139.9,40.9L404.5,333.3"/>
					<path class="st5" d="M432.3,305.5l30.9,113.8C440.2,442.3,453,452,453,493.4c-43.2-24.9-65.6,36.6-102.9,53
						c-18.7,8.2-36.6,15.6-54.6,23.1L432.3,305.5"/>
				</g>
			</g>
			<g>
				<path class="st6" d="M158.8,260.1l19.9-30.6l51.2-8.2c7.1-6,11.3-10.4,28.5-4.6l37.4-4.8l44.1,4.7c9.4-5.6,18.7-3.8,28.1,1.6
					l83.7,58.9l-5.9,23.6c3,18.6,5.3,29.9,8.8,56.2l2.9,61.8c-38.9,21.9-71.1,57.3-68.2,74.7c-4,28.7-16.3,49.3-40.2,58.8
					c-20.4,1.7-36.6,7.7-49.1,17.3c-10.3-10.3-25.8-15.5-44.1-17.8c-24.5-8.8-41.8-27.3-43.9-58.3c-0.4-4.6-3.6-10.6-8.6-17.1
					c-17-22.2-54.2-51-69.5-57l7-61.5c8.1-55.2,7.4-53.6,7.4-54.1l-5.2-17.1L158.8,260.1"/>
				<g>
					<g>
						<defs>
							<path id="SVGID_11_" d="M158.8,260.1l19.9-30.6l51.2-8.2c7.1-6,11.3-10.4,28.5-4.6l37.4-4.8l44.1,4.7
								c9.4-5.6,18.7-3.8,28.1,1.6l83.7,58.9l-5.9,23.6c3,18.6,5.3,29.9,8.8,56.2l2.9,61.8c-38.9,21.9-71.1,57.3-68.2,74.7
								c-4,28.7-16.3,49.3-40.2,58.8c-20.4,1.7-36.6,7.7-49.1,17.3c-10.3-10.3-25.8-15.5-44.1-17.8c-24.5-8.8-41.8-27.3-43.9-58.3
								c-0.4-4.6-3.6-10.6-8.6-17.1c-17-22.2-54.2-51-69.5-57l7-61.5c8.1-55.2,7.4-53.6,7.4-54.1l-5.2-17.1L158.8,260.1"/>
						</defs>
						<clipPath id="SVGID_12_">
							<use xlink:href="#SVGID_11_"  style="overflow:visible;"/>
						</clipPath>
						<g class="st19">
							<g>
								<path class="st8" d="M157.1,393.5l45.3,23.1l-68.5-11.4l4.9-55.3L157.1,393.5"/>
								<path class="st8" d="M164.5,356l42.4,37.5l-73-33l26.5-54.1L164.5,356"/>
							</g>
							<g>
								<path class="st8" d="M438,393.5l-45.3,23.1l68.5-11.4l-4.9-55.3L438,393.5"/>
								<path class="st8" d="M430.5,356l-42.4,37.5l73-33l-26.5-54.1L430.5,356"/>
							</g>
							<g>
								<path class="st9" d="M299.2,479v32.5"/>
								<path class="st10" d="M299.2,511.5l45.7,11.5c19.3-6.8,38.9-21.1,51.5-46.1"/>
								<path class="st10" d="M297.4,511.5L251.7,523c-20.2-2-40-30.8-50.3-46.1"/>
							</g>
							<g>
								<path class="st8" d="M141.6,294c42.9-32.6,58.5-38.1,108.5-31.9c-54.3,6.1-87.2,32.8-104.8,59.9L141.6,294"/>
								<path class="st8" d="M451.6,294c-42.9-32.6-58.5-38.1-108.5-31.9c54.3,6.1,87.2,32.8,104.8,59.9L451.6,294"/>
							</g>
							<g>
								<path class="st8" d="M203.1,213c25.7,29.9,35,34.9,64.8,29.2c-32.4-5.6-52.1-30.1-62.6-54.9L203.1,213"/>
								<path class="st8" d="M388.4,213c-25.7,29.9-35,34.9-64.8,29.2c32.4-5.6,52.1-30.1,62.6-54.9L388.4,213"/>
							</g>
							<g>
								<path class="st8" d="M95.9,285.6c55.4-32.6,75.5-38.1,139.9-31.9c-70,6.1-112.5,32.8-135.1,59.9L95.9,285.6"/>
								<path class="st8" d="M495.6,285.6c-55.4-32.6-75.5-38.1-139.9-31.9c70,6.1,112.5,32.8,135.1,59.9L495.6,285.6"/>
							</g>
							<ellipse class="st8" cx="255.9" cy="313.2" rx="10.5" ry="7.9"/>
							<ellipse class="st8" cx="336.5" cy="313.2" rx="10.5" ry="7.9"/>
						</g>
					</g>
				</g>
				<path class="st9" d="M158.8,260.1l19.9-30.6l51.2-8.2c7.1-6,11.3-10.4,28.5-4.6l37.4-4.8l44.1,4.7c9.4-5.6,18.7-3.8,28.1,1.6
					l83.7,58.9l-5.9,23.6c3,18.6,5.3,29.9,8.8,56.2l2.9,61.8c-38.9,21.9-71.1,57.3-68.2,74.7c-4,28.7-16.3,49.3-40.2,58.8
					c-20.4,1.7-36.6,7.7-49.1,17.3c-10.3-10.3-25.8-15.5-44.1-17.8c-24.5-8.8-41.8-27.3-43.9-58.3c-0.4-4.6-3.6-10.6-8.6-17.1
					c-17-22.2-54.2-51-69.5-57l7-61.5c8.1-55.2,7.4-53.6,7.4-54.1l-5.2-17.1L158.8,260.1"/>
				<g>
					<path class="st11" d="M258.3,448.5c6.3,1,0-7.8,40,8.8c40.1-16.6,30.7-7.7,46.1-10.7c0.3,2.4-6.8,8.6-19.4,16.6
						c-6.6,0.3-9.5,4.2-9.5,11.4l-16.4,12.2L285,474.6c0-5-5.6-10.8-11.9-10.8C258.8,455.7,250.8,451,258.3,448.5"/>
					<g>
						<path class="st8" d="M423.1,322.5c-53.4-8-66-3.9-72.4,10.7c-3,6.9-6,10.4-8.7,32.4c7.3-11.4,15.8-9.1,26.4-4.9
							c6.1,2.4,28.2-3.3,29.9-24.8c0.3-3.6,4.8-3.7,5.7-7.5C409,324.2,414.2,324.7,423.1,322.5"/>
						<g>
							<g>
								<defs>
									<path id="SVGID_13_" d="M423.1,322.5c-53.4-8-66-3.9-72.4,10.7c-3,6.9-6,10.4-8.7,32.4c7.3-11.4,15.8-9.1,26.4-4.9
										c6.1,2.4,28.2-3.3,29.9-24.8c0.3-3.6,4.8-3.7,5.7-7.5C409,324.2,414.2,324.7,423.1,322.5"/>
								</defs>
								<clipPath id="SVGID_14_">
									<use xlink:href="#SVGID_13_"  style="overflow:visible;"/>
								</clipPath>
								<g class="st20">
									<g>
										<ellipse class="st13" cx="364.8" cy="336.2" rx="17.5" ry="16.4"/>
										<ellipse class="st8" cx="364.8" cy="336.2" rx="9.5" ry="8.8"/>
									</g>
									<path class="st14" d="M373.4,318.5l31.2-18.8"/>
								</g>
							</g>
						</g>
						<path class="st9" d="M423.1,322.5c-53.4-8-66-3.9-72.4,10.7c-3,6.9-6,10.4-8.7,32.4c7.3-11.4,15.8-9.1,26.4-4.9
							c6.1,2.4,28.2-3.3,29.9-24.8c0.3-3.6,4.8-3.7,5.7-7.5C409,324.2,414.2,324.7,423.1,322.5"/>
						<path class="st8" d="M175.9,323.4c53.4-8,66-3.9,72.4,10.7c3,6.9,6.6,11.2,8.7,32.4c-7.3-11.4-15.8-9.1-26.4-4.9
							c-6.1,2.4-28.2-3.3-29.9-24.8c-0.3-3.6-4.8-3.7-5.7-7.5C190,325,184.8,325.6,175.9,323.4"/>
						<g>
							<g>
								<defs>
									<path id="SVGID_15_" d="M175.9,323.4c53.4-8,66-3.9,72.4,10.7c3,6.9,6.6,11.2,8.7,32.4c-7.3-11.4-15.8-9.1-26.4-4.9
										c-6.1,2.4-28.2-3.3-29.9-24.8c-0.3-3.6-4.8-3.7-5.7-7.5C190,325,184.8,325.6,175.9,323.4"/>
								</defs>
								<clipPath id="SVGID_16_">
									<use xlink:href="#SVGID_15_"  style="overflow:visible;"/>
								</clipPath>
								<g class="st21">
									<g>
										<ellipse class="st13" cx="234.1" cy="336.2" rx="17.5" ry="16.4"/>
										<ellipse class="st8" cx="234.1" cy="336.2" rx="9.5" ry="8.8"/>
									</g>
								</g>
							</g>
						</g>
						<path class="st9" d="M175.9,323.4c53.4-8,66-3.9,72.4,10.7c3,6.9,6.6,11.2,8.7,32.4c-7.3-11.4-15.8-9.1-26.4-4.9
							c-6.1,2.4-28.2-3.3-29.9-24.8c-0.3-3.6-4.8-3.7-5.7-7.5C190,325,184.8,325.6,175.9,323.4"/>
					</g>
					<g>
						<path class="st8" d="M242.4,359.9c6.4,0.7,11.7,4.9,14.9,12.7c1.7,4.1,2.9,9.2,3.5,15.1c0.5,5.3,0.6,11.3,0,17.9
							c-0.4,3.8-0.9,7.7-1.9,11.9c-1.9,8.8-5.3,18.2-9.3,28.7c0.3,2.5,1.7,4.9,3.9,5.5c2.3,0.6,4.6-0.7,5.2-3l0.9,0.3
							c1.5-9.1,2.5-17.4,3.2-25.1c0.4-3.8,0.6-7.3,1-10.8c0.5-5.1,0.9-9.9,1.1-14.3c0.4-8.5,0-15.7-1.1-21.8
							c-2.7-15-10-23.1-20.1-25.5c-2.3-0.4-4.5,1.1-4.9,3.4C238.5,357.2,240.1,359.4,242.4,359.9L242.4,359.9z"/>
						<path class="st8" d="M352.8,351.7c-8.1,4-13.8,10.7-17,20c-1.7,4.8-2.8,10.3-3.2,16.5c-0.4,5.6-0.2,11.8,0.4,18.5
							c0.3,3.9,0.8,7.9,1.3,12.2c1.1,9.4,2.5,19.5,5.1,30.4c1.7,1.9,4.1,3.1,6.3,2.3c2.2-0.8,3.4-3.2,2.7-5.4l0.9-0.3
							c-4.5-9.9-8.3-19-10.5-27.9c-1-4-1.7-8-2.1-11.7c-0.7-6.4-0.6-12.3,0.1-17.7c0.9-7.1,2.8-13.2,5.7-18.1
							c3.2-5.3,7.8-9,13.5-10.9c2.2-0.9,3.2-3.4,2.3-5.6C357.5,351.8,355,350.8,352.8,351.7z"/>
					</g>
				</g>
				<g>
					<path class="st16" d="M151.2,171.4c11.5-2.5,14.3-0.6,26.8,3.7c13.4,26.3,30.8,38.7,50.8,41.8l3.8,16.1
						c-28.3,0.3-91,50.5-91,50.5c-9.4-34.7-20.2-66.1-8.4-83.6c4.6-6.8,7-12.2,7.5-16.2C141.6,177.8,147.3,174.3,151.2,171.4"/>
					<g>
						<g>
							<defs>
								<path id="SVGID_17_" d="M151.2,171.4c11.5-2.5,14.3-0.6,26.8,3.7c13.4,26.3,30.8,38.7,50.8,41.8l3.8,16.1
									c-28.3,0.3-91,50.5-91,50.5c-9.4-34.7-20.2-66.1-8.4-83.6c4.6-6.8,7-12.2,7.5-16.2C141.6,177.8,147.3,174.3,151.2,171.4"/>
							</defs>
							<clipPath id="SVGID_18_">
								<use xlink:href="#SVGID_17_"  style="overflow:visible;"/>
							</clipPath>
							<g class="st22">
								<path class="st6" d="M52.8,227.5l86.1-74.6l88.2,18.5l7.1,130.5l-43.1-35.2c6.3-44.5-8.9-76.3-45.9-95.3L52.8,227.5"/>
								<path class="st8" d="M69.3,217.6l76.1-45.5c18.6,9.7,31.6,22.7,38.9,39c7,15.5,8.9,34,5.7,55.4c-0.1,0.4,0.1,0.9,0.4,1.1
									l42.9,35.5c0.5,0.4,1.1,0.5,1.7,0.2c0.6-0.3,0.9-0.9,0.9-1.5l-6.3-130.5c-0.1-1-0.8-1.9-1.8-2.1l-88.1-19
									c-0.9-0.2-1.7,0.1-2.4,0.6l-86.5,74.1c-1.4,1.2-1.6,3.4-0.3,4.8c1.2,1.4,3.4,1.6,4.8,0.3L69.3,217.6L69.3,217.6z
									 M70.2,216.8l74.8-45.9c0.2-0.1,0.4-0.1,0.6,0c19.2,9.7,32.6,22.9,40.3,39.5c7.2,15.6,9.4,34.2,6.6,55.8l40,32.3L225,173.3
									l-85.3-17.4L70.2,216.8L70.2,216.8z"/>
							</g>
						</g>
					</g>
					<path class="st9" d="M151.2,171.4c11.5-2.5,14.3-0.6,26.8,3.7c13.4,26.3,30.8,38.7,50.8,41.8l3.8,16.1
						c-28.3,0.3-91,50.5-91,50.5c-9.4-34.7-20.2-66.1-8.4-83.6c4.6-6.8,7-12.2,7.5-16.2C141.6,177.8,147.3,174.3,151.2,171.4"/>
					<path class="st16" d="M440.2,171.4c-9.2,3-11.1,7-26.8,3.7c-9.4,17.7-24.9,32.4-50.8,41.8l-3.8,16.1c28.3,0.3,91,50.5,91,50.5
						C466.3,227.7,465.7,188,440.2,171.4"/>
					<g>
						<g>
							<defs>
								<path id="SVGID_19_" d="M440.2,171.4c-9.2,3-11.1,7-26.8,3.7c-9.4,17.7-24.9,32.4-50.8,41.8l-3.8,16.1
									c28.3,0.3,91,50.5,91,50.5C466.3,227.7,465.7,188,440.2,171.4"/>
							</defs>
							<clipPath id="SVGID_20_">
								<use xlink:href="#SVGID_19_"  style="overflow:visible;"/>
							</clipPath>
							<g class="st23">
								<path class="st6" d="M537.3,227.5l-85.5-74.6l-87.6,18.5l-7,130.5l42.8-35.2c-6.3-44.5,8.8-76.3,45.5-95.3L537.3,227.5"/>
								<path class="st8" d="M520.9,217.6L535,230c1.4,1.2,3.6,1.1,4.8-0.3c1.2-1.4,1.1-3.6-0.3-4.8l-86-74.1
									c-0.7-0.6-1.6-0.8-2.4-0.6l-87.5,19c-1,0.2-1.8,1.1-1.8,2.1l-6.3,130.5c0,0.6,0.3,1.2,0.9,1.5c0.6,0.3,1.2,0.2,1.7-0.2
									l42.6-35.5c0.3-0.3,0.5-0.7,0.4-1.1c-3.1-21.4-1.3-39.8,5.6-55.3c7.3-16.3,20.2-29.4,38.7-39.1L520.9,217.6L520.9,217.6z
									 M519.9,216.8l-69-60.9l-84.7,17.4l-7.4,125.2c0,0,39.7-32.3,39.7-32.3c-2.8-21.6-0.7-40.1,6.5-55.7
									c7.6-16.6,21-29.8,40.1-39.6c0.2-0.1,0.4-0.1,0.6,0L519.9,216.8L519.9,216.8z"/>
								<path class="st6" d="M318.3,226.2l101.7-75.3l81.6,39.4l-24.1,161.4l-33.6-51.3c16.7-53.4,9.4-95.3-22.1-125.5L318.3,226.2"
									/>
								<path class="st8" d="M334.9,218l86.8-42.5c16.6,16.2,26.3,35.7,29.1,58.4c2.4,19.6-0.3,41.6-8.1,66
									c-0.1,0.4-0.1,0.7,0.1,1.1l33.4,51.5c0.4,0.5,1,0.8,1.6,0.7c0.6-0.1,1.1-0.6,1.2-1.3l24.9-161.3c0.2-1-0.4-2-1.3-2.5
									l-81.5-39.8c-0.9-0.5-2.1-0.3-2.9,0.3l-102,74.8c-1.5,1.1-1.8,3.3-0.7,4.8c1.1,1.5,3.3,1.8,4.8,0.7L334.9,218L334.9,218z
									 M335.7,217.4l85.8-43.1c0.2-0.1,0.5-0.1,0.7,0.1c17.2,16.3,27.3,36.1,30.4,59.3c2.6,19.7,0.2,41.8-7.3,66.4l31.3,47.3
									c3.3-23.2,20.2-140.1,22.4-155.8l-78.7-37.5L335.7,217.4L335.7,217.4z"/>
							</g>
						</g>
					</g>
					<path class="st9" d="M440.2,171.4c-9.2,3-11.1,7-26.8,3.7c-9.4,17.7-24.9,32.4-50.8,41.8l-3.8,16.1c28.3,0.3,91,50.5,91,50.5
						C466.3,227.7,465.7,188,440.2,171.4"/>
				</g>
			</g>
			<g>
				<g>
					<g>
						<path class="st8" d="M320.3,490.2c0.7-0.2,1.5,0.2,1.7,0.9c0.2,0.7-0.2,1.4-0.9,1.6c-0.7,0.2-1.5-0.2-1.7-0.9
							C319.2,491.2,319.6,490.4,320.3,490.2L320.3,490.2z"/>
						<path class="st8" d="M329.9,485.6c0.7-0.2,1.5,0.2,1.7,0.9c0.2,0.7-0.2,1.4-0.9,1.6c-0.7,0.2-1.5-0.2-1.7-0.9
							C328.8,486.5,329.2,485.8,329.9,485.6z"/>
						<path class="st8" d="M339.3,482.1c0.7-0.2,1.5,0.2,1.7,0.9c0.2,0.7-0.2,1.4-0.9,1.6c-0.7,0.2-1.5-0.2-1.7-0.9
							S338.6,482.3,339.3,482.1z"/>
						<path class="st8" d="M345.6,479.4c0.7-0.2,1.5,0.2,1.7,0.9c0.2,0.7-0.2,1.4-0.9,1.6c-0.7,0.2-1.5-0.2-1.7-0.9
							C344.5,480.3,344.9,479.5,345.6,479.4z"/>
						<path class="st8" d="M352.3,477c0.7-0.2,1.5,0.2,1.7,0.9c0.2,0.7-0.2,1.4-0.9,1.6c-0.7,0.2-1.5-0.2-1.7-0.9
							C351.2,477.9,351.6,477.2,352.3,477z"/>
					</g>
					<g>
						<path class="st8" d="M324.4,498.2c0.7-0.2,1.5,0.2,1.7,0.9c0.2,0.7-0.2,1.4-0.9,1.6c-0.7,0.2-1.5-0.2-1.7-0.9
							C323.3,499.1,323.7,498.4,324.4,498.2z"/>
						<path class="st8" d="M334,493.6c0.7-0.2,1.5,0.2,1.7,0.9c0.2,0.7-0.2,1.4-0.9,1.6c-0.7,0.2-1.5-0.2-1.7-0.9
							C332.9,494.5,333.3,493.8,334,493.6L334,493.6z"/>
						<path class="st8" d="M343.4,490c0.7-0.2,1.5,0.2,1.7,0.9c0.2,0.7-0.2,1.4-0.9,1.6c-0.7,0.2-1.5-0.2-1.7-0.9
							C342.3,491,342.7,490.2,343.4,490z"/>
						<path class="st8" d="M349.7,487.3c0.7-0.2,1.5,0.2,1.7,0.9c0.2,0.7-0.2,1.4-0.9,1.6c-0.7,0.2-1.5-0.2-1.7-0.9
							C348.6,488.2,349,487.5,349.7,487.3L349.7,487.3z"/>
						<path class="st8" d="M356.5,484.9c0.7-0.2,1.5,0.2,1.7,0.9c0.2,0.7-0.2,1.4-0.9,1.6c-0.7,0.2-1.5-0.2-1.7-0.9
							C355.4,485.8,355.8,485.1,356.5,484.9z"/>
					</g>
					<g>
						<path class="st8" d="M328.9,506.8c0.7-0.2,1.5,0.2,1.7,0.9c0.2,0.7-0.2,1.4-0.9,1.6c-0.7,0.2-1.5-0.2-1.7-0.9
							C327.8,507.7,328.2,507,328.9,506.8L328.9,506.8z"/>
						<path class="st8" d="M338.5,502.2c0.7-0.2,1.5,0.2,1.7,0.9c0.2,0.7-0.2,1.4-0.9,1.6c-0.7,0.2-1.5-0.2-1.7-0.9
							C337.4,503.1,337.8,502.4,338.5,502.2z"/>
						<path class="st8" d="M347.9,498.7c0.7-0.2,1.5,0.2,1.7,0.9c0.2,0.7-0.2,1.4-0.9,1.6c-0.7,0.2-1.5-0.2-1.7-0.9
							C346.8,499.6,347.2,498.9,347.9,498.7z"/>
						<path class="st8" d="M354.2,495.9c0.7-0.2,1.5,0.2,1.7,0.9c0.2,0.7-0.2,1.4-0.9,1.6c-0.7,0.2-1.5-0.2-1.7-0.9
							C353.1,496.9,353.5,496.1,354.2,495.9z"/>
						<path class="st8" d="M361,493.6c0.7-0.2,1.5,0.2,1.7,0.9c0.2,0.7-0.2,1.4-0.9,1.6c-0.7,0.2-1.5-0.2-1.7-0.9
							C359.8,494.5,360.2,493.7,361,493.6z"/>
					</g>
				</g>
				<g>
					<g>
						<path class="st8" d="M279.5,490.2c-0.7-0.2-1.5,0.2-1.7,0.9c-0.2,0.7,0.2,1.4,0.9,1.6c0.7,0.2,1.5-0.2,1.7-0.9
							C280.7,491.2,280.3,490.4,279.5,490.2z"/>
						<path class="st8" d="M269.9,485.6c-0.7-0.2-1.5,0.2-1.7,0.9c-0.2,0.7,0.2,1.4,0.9,1.6c0.7,0.2,1.5-0.2,1.7-0.9
							C271,486.5,270.6,485.8,269.9,485.6z"/>
						<path class="st8" d="M260.5,482.1c-0.7-0.2-1.5,0.2-1.7,0.9c-0.2,0.7,0.2,1.4,0.9,1.6c0.7,0.2,1.5-0.2,1.7-0.9
							C261.6,483,261.2,482.3,260.5,482.1z"/>
						<path class="st8" d="M254.2,479.4c-0.7-0.2-1.5,0.2-1.7,0.9c-0.2,0.7,0.2,1.4,0.9,1.6c0.7,0.2,1.5-0.2,1.7-0.9
							C255.3,480.3,254.9,479.5,254.2,479.4L254.2,479.4z"/>
						<path class="st8" d="M247.5,477c-0.7-0.2-1.5,0.2-1.7,0.9c-0.2,0.7,0.2,1.4,0.9,1.6c0.7,0.2,1.5-0.2,1.7-0.9
							C248.6,477.9,248.2,477.2,247.5,477L247.5,477z"/>
					</g>
					<g>
						<path class="st8" d="M275.4,498.2c-0.7-0.2-1.5,0.2-1.7,0.9c-0.2,0.7,0.2,1.4,0.9,1.6c0.7,0.2,1.5-0.2,1.7-0.9
							C276.5,499.1,276.1,498.4,275.4,498.2L275.4,498.2z"/>
						<path class="st8" d="M265.8,493.6c-0.7-0.2-1.5,0.2-1.7,0.9c-0.2,0.7,0.2,1.4,0.9,1.6c0.7,0.2,1.5-0.2,1.7-0.9
							C266.9,494.5,266.5,493.8,265.8,493.6z"/>
						<path class="st8" d="M256.4,490c-0.7-0.2-1.5,0.2-1.7,0.9c-0.2,0.7,0.2,1.4,0.9,1.6c0.7,0.2,1.5-0.2,1.7-0.9
							C257.5,491,257.1,490.2,256.4,490z"/>
						<path class="st8" d="M250.1,487.3c-0.7-0.2-1.5,0.2-1.7,0.9c-0.2,0.7,0.2,1.4,0.9,1.6c0.7,0.2,1.5-0.2,1.7-0.9
							C251.2,488.2,250.8,487.5,250.1,487.3z"/>
						<path class="st8" d="M243.3,484.9c-0.7-0.2-1.5,0.2-1.7,0.9c-0.2,0.7,0.2,1.4,0.9,1.6c0.7,0.2,1.5-0.2,1.7-0.9
							C244.4,485.8,244,485.1,243.3,484.9z"/>
					</g>
					<g>
						<path class="st8" d="M270.9,506.8c-0.7-0.2-1.5,0.2-1.7,0.9c-0.2,0.7,0.2,1.4,0.9,1.6c0.7,0.2,1.5-0.2,1.7-0.9
							C272,507.7,271.6,507,270.9,506.8z"/>
						<path class="st8" d="M261.3,502.2c-0.7-0.2-1.5,0.2-1.7,0.9c-0.2,0.7,0.2,1.4,0.9,1.6c0.7,0.2,1.5-0.2,1.7-0.9
							C262.4,503.1,262,502.4,261.3,502.2z"/>
						<path class="st8" d="M251.9,498.7c-0.7-0.2-1.5,0.2-1.7,0.9c-0.2,0.7,0.2,1.4,0.9,1.6c0.7,0.2,1.5-0.2,1.7-0.9
							C253,499.6,252.6,498.9,251.9,498.7z"/>
						<path class="st8" d="M245.6,495.9c-0.7-0.2-1.5,0.2-1.7,0.9c-0.2,0.7,0.2,1.4,0.9,1.6c0.7,0.2,1.5-0.2,1.7-0.9
							C246.7,496.9,246.3,496.1,245.6,495.9L245.6,495.9z"/>
						<path class="st8" d="M238.8,493.6c-0.7-0.2-1.5,0.2-1.7,0.9c-0.2,0.7,0.2,1.4,0.9,1.6c0.7,0.2,1.5-0.2,1.7-0.9
							C240,494.5,239.6,493.7,238.8,493.6L238.8,493.6z"/>
					</g>
				</g>
			</g>
		</g>
	</g>
	<g>
		<g>
			<g>
				<g>
					<path class="st4" d="M205,259.9l-34.7,17.3c-15.9,40.2-11.8,20.4-38.1,142.1c52.3,136.9,51.4,103.9,135.7,150.2
						C218.3,503,214.2,416.1,205,259.9L205,259.9L205,259.9z"/>
					<path class="st4" d="M176.6,259.9l-34.7,17.3c-15.9,40.2-11.8,20.4-38.1,142.1c74.9,125.6,62.4,98.4,135.7,150.2
						C189.8,503,185.7,416.1,176.6,259.9L176.6,259.9L176.6,259.9z"/>
					<path class="st5" d="M187.9,333.3L157,447.1c23.1,23.1,0,32.7,0,74.1c41.6-12.8,119.5,51.7,139.9,40.9L187.9,333.3"/>
					<path class="st5" d="M160.1,305.5l-30.9,113.8c23.1,23.1,10.2,32.7,10.2,74.1c43.2-24.9,65.6,36.6,102.9,53
						c18.7,8.2,36.6,15.6,54.6,23.1L160.1,305.5"/>
				</g>
				<g>
					<path class="st4" d="M387.4,259.9l34.7,17.3c15.9,40.2,11.8,20.4,38.1,142.1c-52.3,136.9-51.4,103.9-135.7,150.2
						C374.2,503,378.2,416.1,387.4,259.9L387.4,259.9L387.4,259.9z"/>
					<path class="st4" d="M415.9,259.9l34.7,17.3c15.9,40.2,11.8,20.4,38.1,142.1c-74.9,125.6-62.4,98.4-135.7,150.2
						C402.7,503,406.7,416.1,415.9,259.9L415.9,259.9L415.9,259.9z"/>
					<path class="st5" d="M404.5,333.3l30.9,113.8c-23.1,23.1,0,32.7,0,74.1c-41.6-12.8-119.5,51.7-139.9,40.9L404.5,333.3"/>
					<path class="st5" d="M432.3,305.5l30.9,113.8C440.2,442.3,453,452,453,493.4c-43.2-24.9-65.6,36.6-102.9,53
						c-18.7,8.2-36.6,15.6-54.6,23.1L432.3,305.5"/>
				</g>
			</g>
			<g>
				<path class="st6" d="M158.8,260.1l19.9-30.6l51.2-8.2c7.1-6,11.3-10.4,28.5-4.6l37.4-4.8l44.1,4.7c9.4-5.6,18.7-3.8,28.1,1.6
					l83.7,58.9l-5.9,23.6c3,18.6,5.3,29.9,8.8,56.2l2.9,61.8c-38.9,21.9-71.1,57.3-68.2,74.7c-4,28.7-16.3,49.3-40.2,58.8
					c-20.4,1.7-36.6,7.7-49.1,17.3c-10.3-10.3-25.8-15.5-44.1-17.8c-24.5-8.8-41.8-27.3-43.9-58.3c-0.4-4.6-3.6-10.6-8.6-17.1
					c-17-22.2-54.2-51-69.5-57l7-61.5c8.1-55.2,7.4-53.6,7.4-54.1l-5.2-17.1L158.8,260.1"/>
				<g>
					<g>
						<defs>
							<path id="SVGID_21_" d="M158.8,260.1l19.9-30.6l51.2-8.2c7.1-6,11.3-10.4,28.5-4.6l37.4-4.8l44.1,4.7
								c9.4-5.6,18.7-3.8,28.1,1.6l83.7,58.9l-5.9,23.6c3,18.6,5.3,29.9,8.8,56.2l2.9,61.8c-38.9,21.9-71.1,57.3-68.2,74.7
								c-4,28.7-16.3,49.3-40.2,58.8c-20.4,1.7-36.6,7.7-49.1,17.3c-10.3-10.3-25.8-15.5-44.1-17.8c-24.5-8.8-41.8-27.3-43.9-58.3
								c-0.4-4.6-3.6-10.6-8.6-17.1c-17-22.2-54.2-51-69.5-57l7-61.5c8.1-55.2,7.4-53.6,7.4-54.1l-5.2-17.1L158.8,260.1"/>
						</defs>
						<clipPath id="SVGID_22_">
							<use xlink:href="#SVGID_21_"  style="overflow:visible;"/>
						</clipPath>
						<g class="st24">
							<g>
								<path class="st8" d="M157.1,393.5l45.3,23.1l-68.5-11.4l4.9-55.3L157.1,393.5"/>
								<path class="st8" d="M164.5,356l42.4,37.5l-73-33l26.5-54.1L164.5,356"/>
							</g>
							<g>
								<path class="st8" d="M438,393.5l-45.3,23.1l68.5-11.4l-4.9-55.3L438,393.5"/>
								<path class="st8" d="M430.5,356l-42.4,37.5l73-33l-26.5-54.1L430.5,356"/>
							</g>
							<g>
								<path class="st9" d="M299.2,479v32.5"/>
								<path class="st10" d="M299.2,511.5l45.7,11.5c19.3-6.8,38.9-21.1,51.5-46.1"/>
								<path class="st10" d="M297.4,511.5L251.7,523c-20.2-2-40-30.8-50.3-46.1"/>
							</g>
							<g>
								<path class="st8" d="M141.6,294c42.9-32.6,58.5-38.1,108.5-31.9c-54.3,6.1-87.2,32.8-104.8,59.9L141.6,294"/>
								<path class="st8" d="M451.6,294c-42.9-32.6-58.5-38.1-108.5-31.9c54.3,6.1,87.2,32.8,104.8,59.9L451.6,294"/>
							</g>
							<g>
								<path class="st8" d="M203.1,213c25.7,29.9,35,34.9,64.8,29.2c-32.4-5.6-52.1-30.1-62.6-54.9L203.1,213"/>
								<path class="st8" d="M388.4,213c-25.7,29.9-35,34.9-64.8,29.2c32.4-5.6,52.1-30.1,62.6-54.9L388.4,213"/>
							</g>
							<g>
								<path class="st8" d="M95.9,285.6c55.4-32.6,75.5-38.1,139.9-31.9c-70,6.1-112.5,32.8-135.1,59.9L95.9,285.6"/>
								<path class="st8" d="M495.6,285.6c-55.4-32.6-75.5-38.1-139.9-31.9c70,6.1,112.5,32.8,135.1,59.9L495.6,285.6"/>
							</g>
							<ellipse class="st8" cx="255.9" cy="313.2" rx="10.5" ry="7.9"/>
							<ellipse class="st8" cx="336.5" cy="313.2" rx="10.5" ry="7.9"/>
						</g>
					</g>
				</g>
				<path class="st9" d="M158.8,260.1l19.9-30.6l51.2-8.2c7.1-6,11.3-10.4,28.5-4.6l37.4-4.8l44.1,4.7c9.4-5.6,18.7-3.8,28.1,1.6
					l83.7,58.9l-5.9,23.6c3,18.6,5.3,29.9,8.8,56.2l2.9,61.8c-38.9,21.9-71.1,57.3-68.2,74.7c-4,28.7-16.3,49.3-40.2,58.8
					c-20.4,1.7-36.6,7.7-49.1,17.3c-10.3-10.3-25.8-15.5-44.1-17.8c-24.5-8.8-41.8-27.3-43.9-58.3c-0.4-4.6-3.6-10.6-8.6-17.1
					c-17-22.2-54.2-51-69.5-57l7-61.5c8.1-55.2,7.4-53.6,7.4-54.1l-5.2-17.1L158.8,260.1"/>
				<g>
					<path class="st11" d="M258.3,448.5c6.3,1,0-7.8,40,8.8c40.1-16.6,30.7-7.7,46.1-10.7c0.3,2.4-6.8,8.6-19.4,16.6
						c-6.6,0.3-9.5,4.2-9.5,11.4l-16.4,12.2L285,474.6c0-5-5.6-10.8-11.9-10.8C258.8,455.7,250.8,451,258.3,448.5"/>
					<g>
						<path class="st8" d="M423.1,322.5c-53.4-8-66-3.9-72.4,10.7c-3,6.9-6,10.4-8.7,32.4c7.3-11.4,15.8-9.1,26.4-4.9
							c6.1,2.4,28.2-3.3,29.9-24.8c0.3-3.6,4.8-3.7,5.7-7.5C409,324.2,414.2,324.7,423.1,322.5"/>
						<g>
							<g>
								<defs>
									<path id="SVGID_23_" d="M423.1,322.5c-53.4-8-66-3.9-72.4,10.7c-3,6.9-6,10.4-8.7,32.4c7.3-11.4,15.8-9.1,26.4-4.9
										c6.1,2.4,28.2-3.3,29.9-24.8c0.3-3.6,4.8-3.7,5.7-7.5C409,324.2,414.2,324.7,423.1,322.5"/>
								</defs>
								<clipPath id="SVGID_24_">
									<use xlink:href="#SVGID_23_"  style="overflow:visible;"/>
								</clipPath>
								<g class="st25">
									<g>
										<ellipse class="st13" cx="364.8" cy="336.2" rx="17.5" ry="16.4"/>
										<ellipse class="st8" cx="364.8" cy="336.2" rx="9.5" ry="8.8"/>
									</g>
									<path class="st14" d="M373.4,318.5l31.2-18.8"/>
								</g>
							</g>
						</g>
						<path class="st9" d="M423.1,322.5c-53.4-8-66-3.9-72.4,10.7c-3,6.9-6,10.4-8.7,32.4c7.3-11.4,15.8-9.1,26.4-4.9
							c6.1,2.4,28.2-3.3,29.9-24.8c0.3-3.6,4.8-3.7,5.7-7.5C409,324.2,414.2,324.7,423.1,322.5"/>
						<path class="st8" d="M175.9,323.4c53.4-8,66-3.9,72.4,10.7c3,6.9,6.6,11.2,8.7,32.4c-7.3-11.4-15.8-9.1-26.4-4.9
							c-6.1,2.4-28.2-3.3-29.9-24.8c-0.3-3.6-4.8-3.7-5.7-7.5C190,325,184.8,325.6,175.9,323.4"/>
						<g>
							<g>
								<defs>
									<path id="SVGID_25_" d="M175.9,323.4c53.4-8,66-3.9,72.4,10.7c3,6.9,6.6,11.2,8.7,32.4c-7.3-11.4-15.8-9.1-26.4-4.9
										c-6.1,2.4-28.2-3.3-29.9-24.8c-0.3-3.6-4.8-3.7-5.7-7.5C190,325,184.8,325.6,175.9,323.4"/>
								</defs>
								<clipPath id="SVGID_26_">
									<use xlink:href="#SVGID_25_"  style="overflow:visible;"/>
								</clipPath>
								<g class="st26">
									<g>
										<ellipse class="st13" cx="234.1" cy="336.2" rx="17.5" ry="16.4"/>
										<ellipse class="st8" cx="234.1" cy="336.2" rx="9.5" ry="8.8"/>
									</g>
								</g>
							</g>
						</g>
						<path class="st9" d="M175.9,323.4c53.4-8,66-3.9,72.4,10.7c3,6.9,6.6,11.2,8.7,32.4c-7.3-11.4-15.8-9.1-26.4-4.9
							c-6.1,2.4-28.2-3.3-29.9-24.8c-0.3-3.6-4.8-3.7-5.7-7.5C190,325,184.8,325.6,175.9,323.4"/>
					</g>
					<g>
						<path class="st8" d="M242.4,359.9c6.4,0.7,11.7,4.9,14.9,12.7c1.7,4.1,2.9,9.2,3.5,15.1c0.5,5.3,0.6,11.3,0,17.9
							c-0.4,3.8-0.9,7.7-1.9,11.9c-1.9,8.8-5.3,18.2-9.3,28.7c0.3,2.5,1.7,4.9,3.9,5.5c2.3,0.6,4.6-0.7,5.2-3l0.9,0.3
							c1.5-9.1,2.5-17.4,3.2-25.1c0.4-3.8,0.6-7.3,1-10.8c0.5-5.1,0.9-9.9,1.1-14.3c0.4-8.5,0-15.7-1.1-21.8
							c-2.7-15-10-23.1-20.1-25.5c-2.3-0.4-4.5,1.1-4.9,3.4C238.5,357.2,240.1,359.4,242.4,359.9L242.4,359.9z"/>
						<path class="st8" d="M352.8,351.7c-8.1,4-13.8,10.7-17,20c-1.7,4.8-2.8,10.3-3.2,16.5c-0.4,5.6-0.2,11.8,0.4,18.5
							c0.3,3.9,0.8,7.9,1.3,12.2c1.1,9.4,2.5,19.5,5.1,30.4c1.7,1.9,4.1,3.1,6.3,2.3c2.2-0.8,3.4-3.2,2.7-5.4l0.9-0.3
							c-4.5-9.9-8.3-19-10.5-27.9c-1-4-1.7-8-2.1-11.7c-0.7-6.4-0.6-12.3,0.1-17.7c0.9-7.1,2.8-13.2,5.7-18.1
							c3.2-5.3,7.8-9,13.5-10.9c2.2-0.9,3.2-3.4,2.3-5.6C357.5,351.8,355,350.8,352.8,351.7z"/>
					</g>
				</g>
				<g>
					<path class="st16" d="M151.2,171.4c11.5-2.5,14.3-0.6,26.8,3.7c13.4,26.3,30.8,38.7,50.8,41.8l3.8,16.1
						c-28.3,0.3-91,50.5-91,50.5c-9.4-34.7-20.2-66.1-8.4-83.6c4.6-6.8,7-12.2,7.5-16.2C141.6,177.8,147.3,174.3,151.2,171.4"/>
					<g>
						<g>
							<defs>
								<path id="SVGID_27_" d="M151.2,171.4c11.5-2.5,14.3-0.6,26.8,3.7c13.4,26.3,30.8,38.7,50.8,41.8l3.8,16.1
									c-28.3,0.3-91,50.5-91,50.5c-9.4-34.7-20.2-66.1-8.4-83.6c4.6-6.8,7-12.2,7.5-16.2C141.6,177.8,147.3,174.3,151.2,171.4"/>
							</defs>
							<clipPath id="SVGID_28_">
								<use xlink:href="#SVGID_27_"  style="overflow:visible;"/>
							</clipPath>
							<g class="st27">
								<path class="st6" d="M52.8,227.5l86.1-74.6l88.2,18.5l7.1,130.5l-43.1-35.2c6.3-44.5-8.9-76.3-45.9-95.3L52.8,227.5"/>
								<path class="st8" d="M69.3,217.6l76.1-45.5c18.6,9.7,31.6,22.7,38.9,39c7,15.5,8.9,34,5.7,55.4c-0.1,0.4,0.1,0.9,0.4,1.1
									l42.9,35.5c0.5,0.4,1.1,0.5,1.7,0.2c0.6-0.3,0.9-0.9,0.9-1.5l-6.3-130.5c-0.1-1-0.8-1.9-1.8-2.1l-88.1-19
									c-0.9-0.2-1.7,0.1-2.4,0.6l-86.5,74.1c-1.4,1.2-1.6,3.4-0.3,4.8c1.2,1.4,3.4,1.6,4.8,0.3L69.3,217.6L69.3,217.6z
									 M70.2,216.8l74.8-45.9c0.2-0.1,0.4-0.1,0.6,0c19.2,9.7,32.6,22.9,40.3,39.5c7.2,15.6,9.4,34.2,6.6,55.8l40,32.3L225,173.3
									l-85.3-17.4L70.2,216.8L70.2,216.8z"/>
							</g>
						</g>
					</g>
					<path class="st9" d="M151.2,171.4c11.5-2.5,14.3-0.6,26.8,3.7c13.4,26.3,30.8,38.7,50.8,41.8l3.8,16.1
						c-28.3,0.3-91,50.5-91,50.5c-9.4-34.7-20.2-66.1-8.4-83.6c4.6-6.8,7-12.2,7.5-16.2C141.6,177.8,147.3,174.3,151.2,171.4"/>
					<path class="st16" d="M440.2,171.4c-9.2,3-11.1,7-26.8,3.7c-9.4,17.7-24.9,32.4-50.8,41.8l-3.8,16.1c28.3,0.3,91,50.5,91,50.5
						C466.3,227.7,465.7,188,440.2,171.4"/>
					<g>
						<g>
							<defs>
								<path id="SVGID_29_" d="M440.2,171.4c-9.2,3-11.1,7-26.8,3.7c-9.4,17.7-24.9,32.4-50.8,41.8l-3.8,16.1
									c28.3,0.3,91,50.5,91,50.5C466.3,227.7,465.7,188,440.2,171.4"/>
							</defs>
							<clipPath id="SVGID_30_">
								<use xlink:href="#SVGID_29_"  style="overflow:visible;"/>
							</clipPath>
							<g class="st28">
								<path class="st6" d="M537.3,227.5l-85.5-74.6l-87.6,18.5l-7,130.5l42.8-35.2c-6.3-44.5,8.8-76.3,45.5-95.3L537.3,227.5"/>
								<path class="st8" d="M520.9,217.6L535,230c1.4,1.2,3.6,1.1,4.8-0.3c1.2-1.4,1.1-3.6-0.3-4.8l-86-74.1
									c-0.7-0.6-1.6-0.8-2.4-0.6l-87.5,19c-1,0.2-1.8,1.1-1.8,2.1l-6.3,130.5c0,0.6,0.3,1.2,0.9,1.5c0.6,0.3,1.2,0.2,1.7-0.2
									l42.6-35.5c0.3-0.3,0.5-0.7,0.4-1.1c-3.1-21.4-1.3-39.8,5.6-55.3c7.3-16.3,20.2-29.4,38.7-39.1L520.9,217.6L520.9,217.6z
									 M519.9,216.8l-69-60.9l-84.7,17.4l-7.4,125.2c0,0,39.7-32.3,39.7-32.3c-2.8-21.6-0.7-40.1,6.5-55.7
									c7.6-16.6,21-29.8,40.1-39.6c0.2-0.1,0.4-0.1,0.6,0L519.9,216.8L519.9,216.8z"/>
								<path class="st6" d="M318.3,226.2l101.7-75.3l81.6,39.4l-24.1,161.4l-33.6-51.3c16.7-53.4,9.4-95.3-22.1-125.5L318.3,226.2"
									/>
								<path class="st8" d="M334.9,218l86.8-42.5c16.6,16.2,26.3,35.7,29.1,58.4c2.4,19.6-0.3,41.6-8.1,66
									c-0.1,0.4-0.1,0.7,0.1,1.1l33.4,51.5c0.4,0.5,1,0.8,1.6,0.7c0.6-0.1,1.1-0.6,1.2-1.3l24.9-161.3c0.2-1-0.4-2-1.3-2.5
									l-81.5-39.8c-0.9-0.5-2.1-0.3-2.9,0.3l-102,74.8c-1.5,1.1-1.8,3.3-0.7,4.8c1.1,1.5,3.3,1.8,4.8,0.7L334.9,218L334.9,218z
									 M335.7,217.4l85.8-43.1c0.2-0.1,0.5-0.1,0.7,0.1c17.2,16.3,27.3,36.1,30.4,59.3c2.6,19.7,0.2,41.8-7.3,66.4l31.3,47.3
									c3.3-23.2,20.2-140.1,22.4-155.8l-78.7-37.5L335.7,217.4L335.7,217.4z"/>
							</g>
						</g>
					</g>
					<path class="st9" d="M440.2,171.4c-9.2,3-11.1,7-26.8,3.7c-9.4,17.7-24.9,32.4-50.8,41.8l-3.8,16.1c28.3,0.3,91,50.5,91,50.5
						C466.3,227.7,465.7,188,440.2,171.4"/>
				</g>
			</g>
			<g>
				<g>
					<g>
						<path class="st8" d="M320.3,490.2c0.7-0.2,1.5,0.2,1.7,0.9c0.2,0.7-0.2,1.4-0.9,1.6c-0.7,0.2-1.5-0.2-1.7-0.9
							C319.2,491.2,319.6,490.4,320.3,490.2L320.3,490.2z"/>
						<path class="st8" d="M329.9,485.6c0.7-0.2,1.5,0.2,1.7,0.9c0.2,0.7-0.2,1.4-0.9,1.6c-0.7,0.2-1.5-0.2-1.7-0.9
							C328.8,486.5,329.2,485.8,329.9,485.6z"/>
						<path class="st8" d="M339.3,482.1c0.7-0.2,1.5,0.2,1.7,0.9c0.2,0.7-0.2,1.4-0.9,1.6c-0.7,0.2-1.5-0.2-1.7-0.9
							S338.6,482.3,339.3,482.1z"/>
						<path class="st8" d="M345.6,479.4c0.7-0.2,1.5,0.2,1.7,0.9c0.2,0.7-0.2,1.4-0.9,1.6c-0.7,0.2-1.5-0.2-1.7-0.9
							C344.5,480.3,344.9,479.5,345.6,479.4z"/>
						<path class="st8" d="M352.3,477c0.7-0.2,1.5,0.2,1.7,0.9c0.2,0.7-0.2,1.4-0.9,1.6c-0.7,0.2-1.5-0.2-1.7-0.9
							C351.2,477.9,351.6,477.2,352.3,477z"/>
					</g>
					<g>
						<path class="st8" d="M324.4,498.2c0.7-0.2,1.5,0.2,1.7,0.9c0.2,0.7-0.2,1.4-0.9,1.6c-0.7,0.2-1.5-0.2-1.7-0.9
							C323.3,499.1,323.7,498.4,324.4,498.2z"/>
						<path class="st8" d="M334,493.6c0.7-0.2,1.5,0.2,1.7,0.9c0.2,0.7-0.2,1.4-0.9,1.6c-0.7,0.2-1.5-0.2-1.7-0.9
							C332.9,494.5,333.3,493.8,334,493.6L334,493.6z"/>
						<path class="st8" d="M343.4,490c0.7-0.2,1.5,0.2,1.7,0.9c0.2,0.7-0.2,1.4-0.9,1.6c-0.7,0.2-1.5-0.2-1.7-0.9
							C342.3,491,342.7,490.2,343.4,490z"/>
						<path class="st8" d="M349.7,487.3c0.7-0.2,1.5,0.2,1.7,0.9c0.2,0.7-0.2,1.4-0.9,1.6c-0.7,0.2-1.5-0.2-1.7-0.9
							C348.6,488.2,349,487.5,349.7,487.3L349.7,487.3z"/>
						<path class="st8" d="M356.5,484.9c0.7-0.2,1.5,0.2,1.7,0.9c0.2,0.7-0.2,1.4-0.9,1.6c-0.7,0.2-1.5-0.2-1.7-0.9
							C355.4,485.8,355.8,485.1,356.5,484.9z"/>
					</g>
					<g>
						<path class="st8" d="M328.9,506.8c0.7-0.2,1.5,0.2,1.7,0.9c0.2,0.7-0.2,1.4-0.9,1.6c-0.7,0.2-1.5-0.2-1.7-0.9
							C327.8,507.7,328.2,507,328.9,506.8L328.9,506.8z"/>
						<path class="st8" d="M338.5,502.2c0.7-0.2,1.5,0.2,1.7,0.9c0.2,0.7-0.2,1.4-0.9,1.6c-0.7,0.2-1.5-0.2-1.7-0.9
							C337.4,503.1,337.8,502.4,338.5,502.2z"/>
						<path class="st8" d="M347.9,498.7c0.7-0.2,1.5,0.2,1.7,0.9c0.2,0.7-0.2,1.4-0.9,1.6c-0.7,0.2-1.5-0.2-1.7-0.9
							C346.8,499.6,347.2,498.9,347.9,498.7z"/>
						<path class="st8" d="M354.2,495.9c0.7-0.2,1.5,0.2,1.7,0.9c0.2,0.7-0.2,1.4-0.9,1.6c-0.7,0.2-1.5-0.2-1.7-0.9
							C353.1,496.9,353.5,496.1,354.2,495.9z"/>
						<path class="st8" d="M361,493.6c0.7-0.2,1.5,0.2,1.7,0.9c0.2,0.7-0.2,1.4-0.9,1.6c-0.7,0.2-1.5-0.2-1.7-0.9
							C359.8,494.5,360.2,493.7,361,493.6z"/>
					</g>
				</g>
				<g>
					<g>
						<path class="st8" d="M279.5,490.2c-0.7-0.2-1.5,0.2-1.7,0.9c-0.2,0.7,0.2,1.4,0.9,1.6c0.7,0.2,1.5-0.2,1.7-0.9
							C280.7,491.2,280.3,490.4,279.5,490.2z"/>
						<path class="st8" d="M269.9,485.6c-0.7-0.2-1.5,0.2-1.7,0.9c-0.2,0.7,0.2,1.4,0.9,1.6c0.7,0.2,1.5-0.2,1.7-0.9
							C271,486.5,270.6,485.8,269.9,485.6z"/>
						<path class="st8" d="M260.5,482.1c-0.7-0.2-1.5,0.2-1.7,0.9c-0.2,0.7,0.2,1.4,0.9,1.6c0.7,0.2,1.5-0.2,1.7-0.9
							C261.6,483,261.2,482.3,260.5,482.1z"/>
						<path class="st8" d="M254.2,479.4c-0.7-0.2-1.5,0.2-1.7,0.9c-0.2,0.7,0.2,1.4,0.9,1.6c0.7,0.2,1.5-0.2,1.7-0.9
							C255.3,480.3,254.9,479.5,254.2,479.4L254.2,479.4z"/>
						<path class="st8" d="M247.5,477c-0.7-0.2-1.5,0.2-1.7,0.9c-0.2,0.7,0.2,1.4,0.9,1.6c0.7,0.2,1.5-0.2,1.7-0.9
							C248.6,477.9,248.2,477.2,247.5,477L247.5,477z"/>
					</g>
					<g>
						<path class="st8" d="M275.4,498.2c-0.7-0.2-1.5,0.2-1.7,0.9c-0.2,0.7,0.2,1.4,0.9,1.6c0.7,0.2,1.5-0.2,1.7-0.9
							C276.5,499.1,276.1,498.4,275.4,498.2L275.4,498.2z"/>
						<path class="st8" d="M265.8,493.6c-0.7-0.2-1.5,0.2-1.7,0.9c-0.2,0.7,0.2,1.4,0.9,1.6c0.7,0.2,1.5-0.2,1.7-0.9
							C266.9,494.5,266.5,493.8,265.8,493.6z"/>
						<path class="st8" d="M256.4,490c-0.7-0.2-1.5,0.2-1.7,0.9c-0.2,0.7,0.2,1.4,0.9,1.6c0.7,0.2,1.5-0.2,1.7-0.9
							C257.5,491,257.1,490.2,256.4,490z"/>
						<path class="st8" d="M250.1,487.3c-0.7-0.2-1.5,0.2-1.7,0.9c-0.2,0.7,0.2,1.4,0.9,1.6c0.7,0.2,1.5-0.2,1.7-0.9
							C251.2,488.2,250.8,487.5,250.1,487.3z"/>
						<path class="st8" d="M243.3,484.9c-0.7-0.2-1.5,0.2-1.7,0.9c-0.2,0.7,0.2,1.4,0.9,1.6c0.7,0.2,1.5-0.2,1.7-0.9
							C244.4,485.8,244,485.1,243.3,484.9z"/>
					</g>
					<g>
						<path class="st8" d="M270.9,506.8c-0.7-0.2-1.5,0.2-1.7,0.9c-0.2,0.7,0.2,1.4,0.9,1.6c0.7,0.2,1.5-0.2,1.7-0.9
							C272,507.7,271.6,507,270.9,506.8z"/>
						<path class="st8" d="M261.3,502.2c-0.7-0.2-1.5,0.2-1.7,0.9c-0.2,0.7,0.2,1.4,0.9,1.6c0.7,0.2,1.5-0.2,1.7-0.9
							C262.4,503.1,262,502.4,261.3,502.2z"/>
						<path class="st8" d="M251.9,498.7c-0.7-0.2-1.5,0.2-1.7,0.9c-0.2,0.7,0.2,1.4,0.9,1.6c0.7,0.2,1.5-0.2,1.7-0.9
							C253,499.6,252.6,498.9,251.9,498.7z"/>
						<path class="st8" d="M245.6,495.9c-0.7-0.2-1.5,0.2-1.7,0.9c-0.2,0.7,0.2,1.4,0.9,1.6c0.7,0.2,1.5-0.2,1.7-0.9
							C246.7,496.9,246.3,496.1,245.6,495.9L245.6,495.9z"/>
						<path class="st8" d="M238.8,493.6c-0.7-0.2-1.5,0.2-1.7,0.9c-0.2,0.7,0.2,1.4,0.9,1.6c0.7,0.2,1.5-0.2,1.7-0.9
							C240,494.5,239.6,493.7,238.8,493.6L238.8,493.6z"/>
					</g>
				</g>
			</g>
		</g>
	</g>
</g>
<g>
	<path class="st1" d="M359.4,230.5l1.4-8.8l1.1-10.3h4.8l0.6-3.5l0.4-6.2l-25.5,10.1l-42.1-5.6l-19.6,4.2l-30.8-7.1l-9.9,2.8
		l-12.9-0.9l0.2,4.1l3.7,24c-0.7,0.1-1.5,0.1-2.2,0.2c-24.7,2.1-68.2,37.5-85.5,53.2c33.9-9.7,109.2-14.1,129.7-14.5
		c3.1-0.1,6.1,0.6,8.8,2l18.4,9.5l16.8-9.5c3.3-1.8,6.9-3,10.6-3.4c25.8-2.7,93.2,4.6,122.3,12.9c-17.3-15.6-62.3-48.1-87.1-50.2
		C362,233.3,364.5,229.7,359.4,230.5z"/>
</g>
<path class="st29" d="M140,286.5c0,0,90.4-17.7,136.4-14.2c20.5,11.2,23.7,11.2,23.7,11.2l24.4-12.4c0,0,113.1,8,125.3,12.4"/>
</svg>
