<?xml version="1.0" encoding="UTF-8" standalone="no"?><!DOCTYPE svg PUBLIC "-//W3C//DTD SVG 1.1//EN" "http://www.w3.org/Graphics/SVG/1.1/DTD/svg11.dtd"><svg width="100%" height="100%" viewBox="0 0 2536 2823" version="1.1" xmlns="http://www.w3.org/2000/svg" xmlns:xlink="http://www.w3.org/1999/xlink" xml:space="preserve" xmlns:serif="http://www.serif.com/" style="fill-rule:evenodd;clip-rule:evenodd;stroke-linecap:round;stroke-linejoin:round;stroke-miterlimit:1.5;"><g><g><path d="M2100.57,1020.98c25.862,54.694 48.389,113.973 71.311,151.332c-11.886,114.597 -19.876,177.714 -68.085,494.863c-15.605,227.713 -24.643,258.958 -57.978,586.604c31.436,136.741 51.183,202.025 111.288,374.6l-131.839,47.154c-12.102,-23.264 -27.041,-48.61 -44.488,-75.948c-70.062,-109.778 -180.572,-251.682 -310.234,-419.89c123.16,-116.69 31.287,-231.32 -117.347,-382.245c9.421,-272.021 110.793,-429.614 329.284,-441.456c86.948,-7.612 152.048,-163.075 218.088,-335.014Z" style="fill:#fff;stroke:#000;stroke-width:11.11px;"/><path d="M1393.68,2153.36c-51.297,-24.859 -52.205,-22.41 -99.642,-51.651c-230.035,-141.796 -771.853,-186.208 -812.609,327.406c-10.733,75.709 41.15,231.6 192.103,287.506c244.325,-13.185 434.677,-90.931 567.345,-181.177c50.549,-34.385 72.014,-55.558 114.476,-96.433c18.054,-110.532 26.028,-188.141 38.327,-285.651" style="fill:#fff;stroke:#000;stroke-width:11.11px;"/><path d="M1911.85,643.539c-23.392,-107.956 -138.089,-58.483 -251.556,81.883c-173.022,173.791 -280.298,273.411 -414.435,401.429c-131.918,78.238 -299.352,162.43 -479.627,246.347c-79.244,66.855 -133.39,105.035 -341.66,283.793c-14.798,62.088 -25.035,130.941 -46.909,240.727c-1.102,154 2.168,266.084 1.398,547.449c-0.352,128.361 129.718,241.932 188.539,271.888c235.298,-153.604 410.525,-307.196 521.138,-485.737c106.558,-76.085 848.839,-302.62 999.413,-699.457c7.044,-16.868 55.842,-145.286 35.766,-332.265c-13.507,-125.79 27.253,-247.676 41.666,-284.518l-253.733,-271.539" style="fill:#fff;"/><clipPath id="_clip1"><path d="M1911.85,643.539c-23.392,-107.956 -138.089,-58.483 -251.556,81.883c-173.022,173.791 -280.298,273.411 -414.435,401.429c-131.918,78.238 -299.352,162.43 -479.627,246.347c-79.244,66.855 -133.39,105.035 -341.66,283.793c-14.798,62.088 -25.035,130.941 -46.909,240.727c-1.102,154 2.168,266.084 1.398,547.449c-0.352,128.361 129.718,241.932 188.539,271.888c235.298,-153.604 410.525,-307.196 521.138,-485.737c106.558,-76.085 848.839,-302.62 999.413,-699.457c7.044,-16.868 55.842,-145.286 35.766,-332.265c-13.507,-125.79 27.253,-247.676 41.666,-284.518l-253.733,-271.539"/></clipPath><g clip-path="url(#_clip1)"><g><path d="M1958.24,999.742c94.505,228.336 112.512,553.024 -79.733,894.956c-45,152.344 -41.254,390.63 -31.047,793.794l-144.885,22.127c-91.644,-179.167 -56.848,-287.558 -251.69,-483.82c105.547,-182.996 1.499,-325.989 -194.699,-488.569c12.436,-293.027 108.116,-503.715 396.525,-516.471c114.772,-8.2 218.355,-36.8 305.529,-222.017Z" style="fill:#fff;"/><path d="M1949.44,959.715c98.221,227.371 123.019,562.855 -76.784,903.342c-46.768,151.701 -42.875,388.98 -32.267,790.44l-150.581,22.034c-95.246,-178.41 -59.082,-286.343 -261.584,-481.776c109.696,-182.223 21.779,-310.067 -182.132,-471.96c23.523,-224.833 24.842,-224.582 38.837,-326.421c50.911,-71.128 36.768,-53.866 122.573,-157.916c103.871,-22.765 113.358,-25.681 230.482,-44.497c135.302,-44.134 152.845,-48.159 252.481,-91.191c37.895,-16.367 43.8,-79.695 58.975,-142.055Z"/><path d="M1954.13,959.715c95.742,221.633 117.191,591.95 -77.57,923.845c-45.588,147.872 -41.793,379.164 -31.453,770.493l-146.781,21.478c-92.842,-173.908 -57.591,-279.117 -254.983,-469.619c106.928,-177.624 1.519,-316.419 -197.246,-474.227c32.892,-133.34 56.363,-211.959 82.347,-314.461c54.504,-70.144 64.007,-81.826 114.915,-141.171c77.114,-19.483 113.859,-25.467 201.297,-42.815c50.173,-21.4 154.052,-51.025 216.782,-79.468c49.005,-33.283 68.083,-81.494 92.692,-194.055Z" style="fill:#fff;"/><path d="M1943.91,1042.62c88.163,222.613 104.961,539.165 -74.383,872.528c-41.98,148.526 -38.485,380.841 -28.963,773.901l-135.163,21.573c-85.493,-174.677 -53.032,-280.352 -234.8,-471.696c98.464,-178.41 22.984,-303.118 -160.047,-461.624c17.464,-97.61 45.235,-242.534 66.114,-340.148c30.889,-46.826 59.328,-79.819 95.925,-119.419c53.619,-15.277 61.494,-13.588 184.467,-46.238c120.33,-65.966 126.578,-76.209 204.915,-124.083c32.025,-29.415 53.973,-51.686 81.935,-104.794Z"/></g><g><path d="M1310.47,1752.99c132.77,237.693 158.067,575.686 -112.017,931.63c-63.219,158.587 -57.956,406.638 -43.617,826.323l-203.548,23.033c-128.75,-186.509 -79.865,-299.341 -353.598,-503.646c148.282,-190.495 2.106,-339.347 -273.531,-508.589c17.472,-305.036 151.892,-524.357 557.075,-537.636c161.242,-8.536 306.766,-38.308 429.236,-231.115Z" style="fill:#fff;"/><path d="M1313.1,1778.82c137.989,236.689 157.844,518.424 -122.857,872.865c-65.705,157.917 -60.235,404.919 -45.333,822.831l-211.55,22.936c-133.81,-185.72 -83.003,-298.077 -367.498,-501.518c154.112,-189.69 2.189,-337.913 -284.284,-506.441c-10.476,-181.642 40.447,-327.132 142.08,-411.723c39.335,-32.739 64.949,-46.914 94.74,-72.302c169.754,-34.077 216.24,-47.194 355.944,-63.155c235.704,-26.927 187.078,-21.837 312.324,-34.471c68.295,-24.121 120.587,-67.011 126.434,-129.022Z"/><path d="M1331.83,1778.82c134.507,230.716 137.506,548.712 -136.112,894.208c-64.046,153.932 -58.714,394.701 -44.188,802.067l-206.211,22.357c-130.434,-181.034 -80.91,-290.554 -358.224,-488.862c150.222,-184.904 2.133,-329.386 -277.111,-493.661c7.727,-129.249 39.908,-242.644 106.654,-330.469c94.033,-81.205 104.09,-91.118 144.243,-120.566c87.618,-21.374 168.902,-42.215 311.691,-72.596c98.764,-11.941 173.196,-20.537 260.846,-27.198c118.329,-38.077 193.751,-113.129 198.412,-185.28Z" style="fill:#fff;"/><path d="M1317.4,1778.82c123.861,231.736 120.398,580.063 -131.562,927.087c-58.976,154.613 -54.067,396.447 -40.69,805.615l-189.889,22.456c-120.109,-181.835 -74.505,-291.84 -329.869,-491.025c138.332,-185.721 1.965,-330.843 -255.175,-495.844c2.074,-37.846 2.049,-74.12 7.513,-108.666c13.206,-83.496 35.43,-113.309 78.754,-220.658c40.806,-38.89 77.689,-68.377 126.697,-113.217c136.894,-41.614 180.64,-54.092 306.728,-81.622c76.473,-8.935 101.583,-11.343 175.312,-21.175c85.848,-34.624 186.743,-115.288 252.181,-222.951Z"/></g><path d="M2165.59,915.078c-24.834,69.307 -195.566,-79.984 -204.392,19.546c-52.984,597.527 -1460.92,1458.25 -1582.13,1510.54c-0.352,128.361 129.718,241.932 188.539,271.888c235.298,-153.604 410.525,-307.196 521.138,-485.737c106.558,-76.085 848.839,-302.62 999.413,-699.457c7.044,-16.868 55.842,-145.286 35.766,-332.265c-13.507,-125.79 27.253,-247.676 41.666,-284.518Z"/><clipPath id="_clip2"><path d="M2165.59,915.078c-24.834,69.307 -195.566,-79.984 -204.392,19.546c-52.984,597.527 -1460.92,1458.25 -1582.13,1510.54c-0.352,128.361 129.718,241.932 188.539,271.888c235.298,-153.604 410.525,-307.196 521.138,-485.737c106.558,-76.085 848.839,-302.62 999.413,-699.457c7.044,-16.868 55.842,-145.286 35.766,-332.265c-13.507,-125.79 27.253,-247.676 41.666,-284.518Z"/></clipPath><g clip-path="url(#_clip2)"><path d="M2405.49,1086.28l-449.089,725.537c79.827,-310.46 53.356,-808.154 14.604,-956.064c66.566,-12.03 102.123,31.107 199.944,79.806c19.978,99.688 19.79,141.897 40.497,293.04c-22.639,117.123 -70.035,185.216 -154.238,314.834c6.973,-174.072 -21.904,-414.86 -8.951,-512.599c38.813,23.871 39.855,23.958 63.43,42.303c9.006,90.759 14.268,138.126 23.225,208.96c-13.525,39.22 -14.66,48.299 -35.943,92.54c-11.516,-104.047 -10.492,-83.471 -23.447,-205.235c7.804,120.061 0.084,125.324 10.837,281.248c36.678,-50.93 60.553,-100.451 77.517,-160.656c-10.167,-139.82 -20.668,-184.588 -25.528,-256.687c-42.614,-25.129 -64.513,-37.047 -117.041,-63.185c-10.057,19.204 24.863,161.615 20.412,255.656c-5.416,114.437 -6.689,146.713 -21.856,425.246c100.894,-165.507 209.01,-367.654 324.143,-509.189c-11.125,2.202 -28.831,21.284 -91.364,29.78c-2.45,-35.792 -3.618,-70.334 -4.028,-102.221c-1.202,-93.355 4.087,-163.965 2.705,-176.637c-86.635,-109.644 -211.842,-124.276 -314.123,-85.25c-24.463,135.236 125.977,762.238 -92.442,1173.96c113.93,-403.768 89.725,-1191.52 -39.779,-1240.85c114.33,-84.494 422.255,-106.401 516.293,97.758c0.927,2.012 -36.642,278.197 -36.642,278.197l120.864,-30.3" style="fill:#fff;"/><g><path d="M1851.74,1982.92l-666.898,141.047l57.275,-501.093l25.869,427.804l583.754,-67.758" style="fill:#fff;"/><path d="M1749.98,1954.23l-435.152,43.2l-23.114,-368.071l79.412,302.703l378.854,22.168" style="fill:#fff;"/></g></g><path d="M2165.59,915.078c-24.834,69.307 -195.566,-79.984 -204.392,19.546c-52.984,597.527 -1460.92,1458.25 -1582.13,1510.54c-0.352,128.361 129.718,241.932 188.539,271.888c235.298,-153.604 410.525,-307.196 521.138,-485.737c106.558,-76.085 848.839,-302.62 999.413,-699.457c7.044,-16.868 55.842,-145.286 35.766,-332.265c-13.507,-125.79 27.253,-247.676 41.666,-284.518Z" style="fill:none;stroke:#000;stroke-width:11.11px;"/><path d="M1047.49,1133.73c-76.977,128.988 -130.617,231.275 -332.16,576.305c413.031,-529.443 356.551,-466.111 447.194,-575.395c164.945,-104.173 145.005,-128.127 180.717,-198.798c22.735,-113.898 -90.687,51.945 -295.751,197.888Z"/><path d="M1214.16,1078.17c-76.977,128.989 -130.618,231.276 -332.161,576.306c413.032,-529.444 356.552,-466.112 447.195,-575.395c164.944,-104.174 145.005,-128.128 180.717,-198.798c22.734,-113.899 -90.687,51.945 -295.751,197.887Z"/><path d="M830.826,1247.61c-76.976,128.988 -130.617,231.275 -332.16,576.305c413.031,-529.444 321.906,-421.839 412.549,-531.123c164.944,-104.173 179.651,-172.399 215.363,-243.07c22.734,-113.898 -90.688,51.945 -295.752,197.888Z"/></g><path d="M1911.85,643.539c-23.392,-107.956 -138.089,-58.483 -251.556,81.883c-173.022,173.791 -280.298,273.411 -414.435,401.429c-131.918,78.238 -299.352,162.43 -479.627,246.347c-79.244,66.855 -133.39,105.035 -341.66,283.793c-14.798,62.088 -25.035,130.941 -46.909,240.727c-1.102,154 2.168,266.084 1.398,547.449c-0.352,128.361 129.718,241.932 188.539,271.888c235.298,-153.604 410.525,-307.196 521.138,-485.737c106.558,-76.085 848.839,-302.62 999.413,-699.457c7.044,-16.868 55.842,-145.286 35.766,-332.265c-13.507,-125.79 27.253,-247.676 41.666,-284.518l-253.733,-271.539" style="fill:none;stroke:#000;stroke-width:11.11px;"/><path d="M1951.65,959.715c38.603,103.876 51.068,132.507 90.063,215.483c-9.178,145.33 -68.252,151.173 -108.746,582.087c-34.693,98.588 -70.628,233.904 -123.767,441.6c-0.694,137.374 40.652,337.155 80.462,476.646l-156.31,19.727c-69.427,-166.323 -142.428,-279.607 -290.036,-461.799c28.196,-47.399 34.644,-55.705 53.828,-107.246c-41.583,-96.93 -112.953,-231.071 -186.592,-354.605c34.564,-130.227 37.831,-124.746 108.931,-310.642c32.46,-36.791 61.769,-64.753 93.313,-96.181c76.641,-25.172 103.089,-29.53 182.78,-51.653c86.851,-72.754 87.065,-70.845 166.955,-168.687c57.461,-112.793 61.205,-139.473 89.119,-184.73Z" style="fill:#fff;"/><clipPath id="_clip3"><path d="M1951.65,959.715c38.603,103.876 51.068,132.507 90.063,215.483c-9.178,145.33 -68.252,151.173 -108.746,582.087c-34.693,98.588 -70.628,233.904 -123.767,441.6c-0.694,137.374 40.652,337.155 80.462,476.646l-156.31,19.727c-69.427,-166.323 -142.428,-279.607 -290.036,-461.799c28.196,-47.399 34.644,-55.705 53.828,-107.246c-41.583,-96.93 -112.953,-231.071 -186.592,-354.605c34.564,-130.227 37.831,-124.746 108.931,-310.642c32.46,-36.791 61.769,-64.753 93.313,-96.181c76.641,-25.172 103.089,-29.53 182.78,-51.653c86.851,-72.754 87.065,-70.845 166.955,-168.687c57.461,-112.793 61.205,-139.473 89.119,-184.73Z"/></clipPath><g clip-path="url(#_clip3)"><path d="M1825.68,1829.3c-48.121,-69.46 -67.035,-107.961 -100.658,-186.089c0.103,-76.678 -2.164,-110.752 6.137,-180.508c23.664,-58.775 23.491,-56.985 85.33,-176.283c-71.328,90.481 -91.191,114.981 -139.365,175.787c-13.723,56.236 -32.948,149.752 -46.873,212.263c33.583,95.005 69.02,156.671 107.989,228.612c95.831,34.285 122.387,42.519 222.558,75.764c36.632,92.041 61.483,169.737 104.899,320.707c-12.392,-172.837 -17.315,-278.402 -26.274,-398.332c-117.224,-38.841 -151.586,-56.511 -213.743,-71.921Z"/><path d="M1646.22,1984.69c-48.121,-69.461 -67.034,-107.961 -100.658,-186.089c0.103,-76.678 -2.163,-110.753 6.137,-180.509c23.665,-58.775 23.491,-56.985 85.33,-176.283c-71.328,90.481 -91.191,114.982 -139.365,175.787c-13.723,56.237 -32.948,149.753 -46.873,212.263c33.584,95.005 69.02,156.671 107.989,228.612c95.831,34.286 122.388,42.519 222.558,75.765c36.632,92.04 61.484,169.736 104.899,320.706c-12.391,-172.836 -17.314,-278.402 -26.274,-398.331c-117.224,-38.842 -151.586,-56.512 -213.743,-71.921Z"/></g><path d="M1951.65,959.715c38.603,103.876 51.068,132.507 90.063,215.483c-9.178,145.33 -68.252,151.173 -108.746,582.087c-34.693,98.588 -70.628,233.904 -123.767,441.6c-0.694,137.374 40.652,337.155 80.462,476.646l-156.31,19.727c-69.427,-166.323 -142.428,-279.607 -290.036,-461.799c28.196,-47.399 34.644,-55.705 53.828,-107.246c-41.583,-96.93 -112.953,-231.071 -186.592,-354.605c34.564,-130.227 37.831,-124.746 108.931,-310.642c32.46,-36.791 61.769,-64.753 93.313,-96.181c76.641,-25.172 103.089,-29.53 182.78,-51.653c86.851,-72.754 87.065,-70.845 166.955,-168.687c57.461,-112.793 61.205,-139.473 89.119,-184.73Z" style="fill:none;stroke:#000;stroke-width:11.11px;"/></g><g><path d="M2218.69,2616.6c15.949,19.579 22.107,32.374 34.877,52.361c2.159,3.379 4.507,6.964 7.122,10.821c10.513,29.152 13.972,40.569 18.503,68.777c-14.946,7.337 -65.457,27.788 -93.892,32.674c-27.992,-11.354 -45.5,-14.631 -64.199,-25.474c-11.337,-19.267 -19.136,-35.84 -29.834,-58.093c-10.434,-39.182 -12.953,-43.529 -22.855,-79.111c25.03,-16.728 62.44,-33.6 77.378,-41.57c29.25,14.855 46.288,27.658 72.9,39.615Z" style="fill:#fff;stroke:#000;stroke-width:11.11px;"/><path d="M2172.14,2615.64c15.949,19.58 22.107,32.375 34.877,52.362c2.159,3.379 4.506,6.963 7.122,10.821c10.513,29.151 13.972,40.568 18.503,68.776c-14.946,7.338 -65.457,27.788 -93.892,32.674c-27.992,-11.354 -45.5,-14.631 -64.199,-25.474c-11.337,-19.267 -19.136,-35.839 -29.834,-58.092c-10.434,-39.182 -12.953,-43.53 -22.855,-79.111c25.03,-16.729 62.44,-33.601 77.378,-41.571c29.25,14.856 46.288,27.658 72.9,39.615Z" style="fill:#fff;stroke:#000;stroke-width:11.11px;"/><path d="M2120.92,2615.73c15.949,19.58 22.108,32.375 34.877,52.362c2.159,3.379 4.507,6.963 7.123,10.821c10.513,29.151 13.971,40.568 18.502,68.776c-14.946,7.338 -65.456,27.788 -93.892,32.674c-27.992,-11.353 -45.5,-14.63 -64.199,-25.474c-11.337,-19.267 -19.136,-35.839 -29.834,-58.092c-10.434,-39.182 -12.953,-43.529 -22.855,-79.111c25.03,-16.728 62.441,-33.601 77.378,-41.57c29.251,14.855 46.289,27.657 72.9,39.614Z" style="fill:#fff;stroke:#000;stroke-width:11.11px;"/></g><g><path d="M1927.59,2654.69c14.702,20.533 20.054,33.686 31.557,54.427c1.945,3.507 4.066,7.23 6.437,11.243c8.681,29.748 11.424,41.358 14.194,69.793c-15.374,6.395 -67.057,23.668 -95.741,26.777c-27.233,-13.07 -44.503,-17.429 -62.492,-29.413c-10.118,-19.934 -16.873,-36.959 -26.168,-59.834c-7.979,-39.754 -10.223,-44.249 -17.895,-80.378c26.021,-15.14 64.407,-29.656 79.811,-36.682c28.271,16.643 44.48,30.48 70.297,44.067Z" style="fill:#fff;stroke:#000;stroke-width:11.11px;"/><path d="M1881.19,2650.84c14.702,20.533 20.054,33.686 31.557,54.427c1.945,3.507 4.065,7.23 6.437,11.243c8.681,29.748 11.423,41.358 14.194,69.793c-15.374,6.395 -67.057,23.668 -95.741,26.777c-27.233,-13.07 -44.503,-17.429 -62.493,-29.413c-10.117,-19.934 -16.872,-36.959 -26.167,-59.834c-7.979,-39.754 -10.223,-44.249 -17.896,-80.378c26.021,-15.141 64.408,-29.656 79.811,-36.682c28.272,16.643 44.481,30.48 70.298,44.067Z" style="fill:#fff;stroke:#000;stroke-width:11.11px;"/><path d="M1830.06,2647.75c14.702,20.533 20.053,33.686 31.557,54.427c1.944,3.507 4.065,7.23 6.436,11.243c8.682,29.748 11.424,41.358 14.194,69.793c-15.373,6.395 -67.057,23.668 -95.74,26.777c-27.233,-13.071 -44.504,-17.429 -62.493,-29.413c-10.118,-19.934 -16.872,-36.959 -26.168,-59.834c-7.979,-39.754 -10.223,-44.249 -17.895,-80.378c26.021,-15.141 64.407,-29.656 79.811,-36.682c28.271,16.643 44.481,30.48 70.298,44.067Z" style="fill:#fff;stroke:#000;stroke-width:11.11px;"/></g><g><g><g><g><g><path d="M1765.72,256.271l-79.597,39.553c-36.376,92.077 -27.018,46.653 -87.304,325.834c119.893,313.884 117.891,238.282 311.113,344.417c-113.928,-152.446 -123.248,-351.741 -144.212,-709.803l0,-0.001Z" style="fill:#fff;stroke:#000;stroke-width:14.35px;"/><path d="M1700.41,256.271l-79.597,39.553c-36.376,92.077 -27.019,46.653 -87.304,325.834c171.681,287.99 143.1,225.678 311.113,344.417c-113.929,-152.446 -123.248,-351.741 -144.212,-709.803l-0,-0.001Z" style="fill:#fff;stroke:#000;stroke-width:14.35px;"/><path d="M1726.37,424.46l-70.894,260.909c52.849,52.848 0,75.06 0,169.854c95.38,-29.265 274.047,118.627 320.793,93.724l-249.899,-524.487" style="fill:#fff;stroke:#000;stroke-width:12.74px;"/><path d="M1662.66,360.747l-70.893,260.91c52.848,52.848 23.421,75.06 23.421,169.854c99.011,-57.111 150.359,83.943 235.909,121.534c42.901,18.851 83.922,35.824 125.176,53.028l-313.613,-605.325" style="fill:#fff;stroke:#000;stroke-width:12.74px;"/></g><g><path d="M2183.69,256.271l79.597,39.553c36.376,92.077 27.018,46.653 87.304,325.834c-119.893,313.884 -117.891,238.282 -311.113,344.417c113.928,-152.446 123.248,-351.741 144.212,-709.803l-0,-0.001Z" style="fill:#fff;stroke:#000;stroke-width:14.35px;"/><path d="M2248.99,256.271l79.597,39.553c36.376,92.077 27.019,46.653 87.304,325.834c-171.681,287.99 -143.1,225.678 -311.113,344.417c113.929,-152.446 123.249,-351.741 144.212,-709.803l-0,-0.001Z" style="fill:#fff;stroke:#000;stroke-width:14.35px;"/><path d="M2223.02,424.46l70.893,260.909c-52.848,52.848 0,75.06 0,169.854c-95.379,-29.265 -274.047,118.627 -320.792,93.724l249.899,-524.487" style="fill:#fff;stroke:#000;stroke-width:12.74px;"/><path d="M2286.74,360.747l70.894,260.91c-52.848,52.848 -23.421,75.06 -23.421,169.854c-99.011,-57.111 -150.36,83.943 -235.909,121.534c-42.901,18.851 -83.923,35.824 -125.176,53.028l313.612,-605.325" style="fill:#fff;stroke:#000;stroke-width:12.74px;"/></g></g><g><path d="M1659.62,256.646l45.548,-70.255l117.329,-18.794c16.227,-13.722 25.845,-23.92 65.292,-10.458l85.818,-11.018l101.185,10.858c21.476,-12.837 42.951,-8.677 64.427,3.584l191.919,135.086l-13.538,54.151c6.915,42.681 12.06,68.434 20.267,128.808l6.759,141.668c-89.073,50.2 -163.069,131.408 -156.43,171.236c-9.138,65.688 -37.326,112.926 -92.121,134.855c-46.872,3.818 -83.872,17.575 -112.554,39.708c-23.702,-23.671 -59.209,-35.458 -101.104,-40.813c-56.194,-20.12 -95.81,-62.687 -100.709,-133.75c-0.945,-10.642 -8.36,-24.292 -19.789,-39.243c-38.908,-50.899 -124.334,-116.877 -159.332,-130.611l16.126,-140.973c18.639,-126.482 17.021,-122.787 17.009,-124.092l-11.895,-39.286l35.793,-60.661" style="fill:#fff;"/><g><clipPath id="_clip4"><path d="M1659.62,256.646l45.548,-70.255l117.329,-18.794c16.227,-13.722 25.845,-23.92 65.292,-10.458l85.818,-11.018l101.185,10.858c21.476,-12.837 42.951,-8.677 64.427,3.584l191.919,135.086l-13.538,54.151c6.915,42.681 12.06,68.434 20.267,128.808l6.759,141.668c-89.073,50.2 -163.069,131.408 -156.43,171.236c-9.138,65.688 -37.326,112.926 -92.121,134.855c-46.872,3.818 -83.872,17.575 -112.554,39.708c-23.702,-23.671 -59.209,-35.458 -101.104,-40.813c-56.194,-20.12 -95.81,-62.687 -100.709,-133.75c-0.945,-10.642 -8.36,-24.292 -19.789,-39.243c-38.908,-50.899 -124.334,-116.877 -159.332,-130.611l16.126,-140.973c18.639,-126.482 17.021,-122.787 17.009,-124.092l-11.895,-39.286l35.793,-60.661"/></clipPath><g clip-path="url(#_clip4)"><g><path d="M1655.75,562.597l103.798,53.025l-156.966,-26.066l11.311,-126.852l41.857,99.893"/><path d="M1672.81,476.527l97.087,85.993l-167.31,-75.609l60.798,-124.025l9.425,113.641"/></g><g><path d="M2299.71,562.597l-103.798,53.025l156.966,-26.066l-11.311,-126.852l-41.857,99.893"/><path d="M2282.65,476.527l-97.088,85.993l167.311,-75.609l-60.798,-124.025l-9.425,113.641"/></g><g><path d="M1981.57,758.546l-0,74.476" style="fill:none;stroke:#000;stroke-width:12.97px;"/><path d="M1981.57,833.022l104.781,26.365c44.133,-15.6 89.175,-48.271 118.126,-105.619" style="fill:none;stroke:#000;stroke-width:14.35px;"/><path d="M1977.49,833.022l-104.781,26.365c-46.314,-4.52 -91.769,-70.697 -115.28,-105.619" style="fill:none;stroke:#000;stroke-width:14.35px;"/></g><g><path d="M1620.22,334.513c98.443,-74.843 134.194,-87.244 248.727,-73.168c-124.47,14.024 -199.986,75.294 -240.218,137.288l-8.509,-64.12"/><path d="M2330.87,334.513c-98.443,-74.843 -134.194,-87.244 -248.727,-73.168c124.471,14.024 199.986,75.294 240.218,137.288l8.509,-64.12"/></g><g><path d="M1761.26,148.769c58.831,68.581 80.196,79.944 148.643,67.045c-74.386,-12.849 -119.515,-68.992 -143.559,-125.798l-5.084,58.753"/><path d="M2185.95,148.769c-58.831,68.581 -80.196,79.944 -148.643,67.045c74.386,-12.849 119.515,-68.992 143.558,-125.798l5.085,58.753"/></g><g><path d="M1515.53,315.126c126.909,-74.844 172.998,-87.245 320.65,-73.168c-160.463,14.023 -257.815,75.293 -309.682,137.288l-10.968,-64.12"/><path d="M2431.68,315.126c-126.91,-74.844 -172.998,-87.245 -320.651,-73.168c160.463,14.023 257.816,75.293 309.682,137.288l10.969,-64.12"/></g><ellipse cx="1882.39" cy="378.472" rx="24.074" ry="18.056"/><ellipse cx="2067.16" cy="378.472" rx="24.074" ry="18.056"/></g></g><path d="M1659.62,256.646l45.548,-70.255l117.329,-18.794c16.227,-13.722 25.845,-23.92 65.292,-10.458l85.818,-11.018l101.185,10.858c21.476,-12.837 42.951,-8.677 64.427,3.584l191.919,135.086l-13.538,54.151c6.915,42.681 12.06,68.434 20.267,128.808l6.759,141.668c-89.073,50.2 -163.069,131.408 -156.43,171.236c-9.138,65.688 -37.326,112.926 -92.121,134.855c-46.872,3.818 -83.872,17.575 -112.554,39.708c-23.702,-23.671 -59.209,-35.458 -101.104,-40.813c-56.194,-20.12 -95.81,-62.687 -100.709,-133.75c-0.945,-10.642 -8.36,-24.292 -19.789,-39.243c-38.908,-50.899 -124.334,-116.877 -159.332,-130.611l16.126,-140.973c18.639,-126.482 17.021,-122.787 17.009,-124.092l-11.895,-39.286l35.793,-60.661" style="fill:none;stroke:#000;stroke-width:12.97px;"/><g><path d="M1887.79,688.732c14.532,2.376 -0.05,-17.802 91.697,20.232c91.978,-38.082 70.472,-17.67 105.708,-24.422c0.658,5.399 -15.597,19.674 -44.385,37.963c-15.054,0.701 -21.693,9.56 -21.693,26.03l-37.528,28.026l-32.582,-28.09c0,-11.41 -12.775,-24.787 -27.321,-24.787c-32.775,-18.623 -51.054,-29.396 -33.896,-34.952" style="stroke:#000;stroke-width:12.97px;"/><g><path d="M2265.54,399.786c-122.388,-18.405 -151.346,-8.919 -166.026,24.575c-6.98,15.923 -13.715,23.928 -19.992,74.344c16.684,-26.122 36.31,-20.921 60.43,-11.307c13.975,5.57 64.682,-7.642 68.492,-56.754c0.632,-8.145 10.959,-8.451 13.013,-17.098c11.858,-9.963 23.739,-8.623 44.083,-13.76"/><g><clipPath id="_clip5"><path d="M2265.54,399.786c-122.388,-18.405 -151.346,-8.919 -166.026,24.575c-6.98,15.923 -13.715,23.928 -19.992,74.344c16.684,-26.122 36.31,-20.921 60.43,-11.307c13.975,5.57 64.682,-7.642 68.492,-56.754c0.632,-8.145 10.959,-8.451 13.013,-17.098c11.858,-9.963 23.739,-8.623 44.083,-13.76"/></clipPath><g clip-path="url(#_clip5)"><g><ellipse cx="2131.83" cy="431.255" rx="40.01" ry="37.536" style="fill:#930df2;"/><ellipse cx="2131.83" cy="431.255" rx="21.878" ry="20.097"/></g><path d="M2151.71,390.537l71.628,-43.056" style="fill:none;"/></g></g><path d="M2265.54,399.786c-122.388,-18.405 -151.346,-8.919 -166.026,24.575c-6.98,15.923 -13.715,23.928 -19.992,74.344c16.684,-26.122 36.31,-20.921 60.43,-11.307c13.975,5.57 64.682,-7.642 68.492,-56.754c0.632,-8.145 10.959,-8.451 13.013,-17.098c11.858,-9.963 23.739,-8.623 44.083,-13.76" style="fill:none;stroke:#000;stroke-width:12.97px;"/><path d="M1698.9,401.804c122.388,-18.405 151.347,-8.919 166.027,24.575c6.979,15.923 15.194,25.754 19.992,74.344c-16.685,-26.122 -36.311,-20.92 -60.43,-11.307c-13.975,5.57 -64.682,-7.642 -68.492,-56.754c-0.632,-8.146 -10.96,-8.45 -13.014,-17.098c-11.857,-9.962 -23.738,-8.623 -44.083,-13.76"/><g><clipPath id="_clip6"><path d="M1698.9,401.804c122.388,-18.405 151.347,-8.919 166.027,24.575c6.979,15.923 15.194,25.754 19.992,74.344c-16.685,-26.122 -36.311,-20.92 -60.43,-11.307c-13.975,5.57 -64.682,-7.642 -68.492,-56.754c-0.632,-8.146 -10.96,-8.45 -13.014,-17.098c-11.857,-9.962 -23.738,-8.623 -44.083,-13.76"/></clipPath><g clip-path="url(#_clip6)"><g><ellipse cx="1832.38" cy="431.255" rx="40.01" ry="37.536" style="fill:#930df2;"/><ellipse cx="1832.38" cy="431.255" rx="21.878" ry="20.097"/></g></g></g><path d="M1698.9,401.804c122.388,-18.405 151.347,-8.919 166.027,24.575c6.979,15.923 15.194,25.754 19.992,74.344c-16.685,-26.122 -36.311,-20.92 -60.43,-11.307c-13.975,5.57 -64.682,-7.642 -68.492,-56.754c-0.632,-8.146 -10.96,-8.45 -13.014,-17.098c-11.857,-9.962 -23.738,-8.623 -44.083,-13.76" style="fill:none;stroke:#000;stroke-width:12.97px;"/></g><g><path d="M1851.34,485.42c14.782,1.707 26.737,11.279 34.219,29.173c3.956,9.46 6.717,21.002 8.025,34.621c1.161,12.099 1.409,25.822 -0.057,41.085c-0.828,8.621 -2.139,17.739 -4.256,27.264c-4.469,20.109 -12.12,41.656 -21.249,65.802c0.761,5.8 3.841,11.177 9.05,12.591c5.209,1.414 10.586,-1.666 12,-6.875l2.175,0.591c3.482,-20.899 5.627,-39.898 7.332,-57.552c0.834,-8.626 1.482,-16.808 2.208,-24.654c1.091,-11.799 2.145,-22.719 2.608,-32.872c0.889,-19.483 0.002,-36.05 -2.48,-49.981c-6.126,-34.382 -22.995,-52.902 -46.137,-58.446c-5.313,-0.949 -10.397,2.594 -11.346,7.907c-0.949,5.314 2.595,10.398 7.908,11.346Z"/><path d="M2104.43,466.779c-18.56,9.224 -31.575,24.635 -39.016,45.841c-3.889,11.085 -6.39,23.667 -7.352,37.764c-0.881,12.913 -0.345,27.033 0.991,42.348c0.778,8.913 1.907,18.198 3.05,27.936c2.523,21.491 5.746,44.681 11.66,69.734c3.877,4.38 9.439,7.112 14.547,5.368c5.108,-1.743 7.84,-7.306 6.096,-12.414l2.133,-0.728c-10.268,-22.624 -18.934,-43.616 -24.027,-63.871c-2.321,-9.23 -3.801,-18.231 -4.71,-26.867c-1.541,-14.645 -1.275,-28.266 0.212,-40.574c1.967,-16.295 6.423,-30.273 13.167,-41.459c7.371,-12.224 17.856,-20.54 30.847,-25.055c4.974,-2.097 7.309,-7.837 5.213,-12.81c-2.097,-4.974 -7.837,-7.31 -12.811,-5.213Z"/></g></g><g><path d="M1642.33,53.38c26.434,-5.689 32.779,-1.449 61.39,8.554c30.705,60.328 70.54,88.7 116.426,95.894l8.766,36.81c-64.896,0.74 -208.513,115.783 -208.513,115.783c-21.488,-79.654 -46.243,-151.427 -19.185,-191.609c10.48,-15.563 16.062,-27.983 17.277,-37.223c1.79,-13.625 14.9,-21.474 23.839,-28.209" style="fill:#ff8ae9;"/><g><clipPath id="_clip7"><path d="M1642.33,53.38c26.434,-5.689 32.779,-1.449 61.39,8.554c30.705,60.328 70.54,88.7 116.426,95.894l8.766,36.81c-64.896,0.74 -208.513,115.783 -208.513,115.783c-21.488,-79.654 -46.243,-151.427 -19.185,-191.609c10.48,-15.563 16.062,-27.983 17.277,-37.223c1.79,-13.625 14.9,-21.474 23.839,-28.209"/></clipPath><g clip-path="url(#_clip7)"><path d="M1416.79,181.901l197.439,-171.013l202.293,42.492l16.183,299.185l-98.719,-80.786c14.54,-102.113 -20.404,-174.969 -105.122,-218.399l-212.074,128.521" style="fill:#fff;"/><path d="M1454.47,159.352l174.436,-104.38c42.629,22.306 72.376,52.113 89.21,89.474c16.002,35.515 20.312,77.832 13.04,126.93c-0.14,0.989 0.245,1.979 1.018,2.612l98.267,81.339c1.095,0.896 2.614,1.061 3.875,0.421c1.262,-0.64 2.026,-1.964 1.95,-3.376l-14.508,-299.275c-0.128,-2.373 -1.835,-4.364 -4.161,-4.852l-202.055,-43.626c-1.959,-0.412 -3.998,0.116 -5.511,1.427l-198.397,169.906c-3.283,2.844 -3.639,7.818 -0.796,11.101c2.844,3.283 7.818,3.64 11.101,0.796l32.531,-28.497Zm2.201,-1.928l171.468,-105.232c0.413,-0.25 0.925,-0.268 1.354,-0.048c44.037,22.264 74.82,52.481 92.483,90.537c16.571,35.707 21.591,78.34 15.049,127.887l91.631,74.133l-17.136,-286.985l-195.464,-39.916l-159.385,139.624Z"/></g></g><path d="M1642.33,53.38c26.434,-5.689 32.779,-1.449 61.39,8.554c30.705,60.328 70.54,88.7 116.426,95.894l8.766,36.81c-64.896,0.74 -208.513,115.783 -208.513,115.783c-21.488,-79.654 -46.243,-151.427 -19.185,-191.609c10.48,-15.563 16.062,-27.983 17.277,-37.223c1.79,-13.625 14.9,-21.474 23.839,-28.209" style="fill:none;stroke:#000;stroke-width:12.97px;"/><path d="M2304.88,53.38c-21.2,6.873 -25.46,16.115 -61.39,8.554c-21.462,40.637 -57.009,74.233 -116.426,95.894l-8.766,36.81c64.896,0.74 208.513,115.783 208.513,115.783c37.926,-127.895 36.38,-218.955 -21.931,-257.041" style="fill:#ff8ae9;"/><g><clipPath id="_clip8"><path d="M2304.88,53.38c-21.2,6.873 -25.46,16.115 -61.39,8.554c-21.462,40.637 -57.009,74.233 -116.426,95.894l-8.766,36.81c64.896,0.74 208.513,115.783 208.513,115.783c37.926,-127.895 36.38,-218.955 -21.931,-257.041"/></clipPath><g clip-path="url(#_clip8)"><path d="M2527.32,181.901l-196.087,-171.013l-200.91,42.492l-16.072,299.185l98.043,-80.786c-14.44,-102.113 20.265,-174.969 104.404,-218.399l210.622,128.521" style="fill:#fff;"/><path d="M2489.78,159.287l32.362,28.545c3.274,2.854 8.249,2.515 11.104,-0.759c2.854,-3.273 2.515,-8.248 -0.759,-11.103l-197.048,-169.911c-1.517,-1.322 -3.568,-1.856 -5.537,-1.439l-200.67,43.621c-2.325,0.492 -4.031,2.484 -4.158,4.858l-14.391,299.275c-0.076,1.413 0.691,2.738 1.955,3.377c1.264,0.637 2.785,0.468 3.877,-0.432l97.59,-81.338c0.767,-0.631 1.15,-1.618 1.011,-2.602c-7.213,-49.015 -2.962,-91.273 12.861,-126.75c16.7,-37.447 46.267,-67.315 88.669,-89.657l173.134,104.315Zm-2.192,-1.935l-158.201,-139.544l-194.063,39.906l-17.035,286.955c0,0 90.96,-74.095 90.96,-74.094c-6.484,-49.459 -1.526,-92.028 14.864,-127.695c17.53,-38.148 48.133,-68.43 91.944,-90.732c0.43,-0.222 0.945,-0.203 1.358,0.049l170.173,105.155Z"/><path d="M2025.26,178.95l233.082,-172.518l187.176,90.263l-55.184,370.006l-77.098,-117.701c38.398,-122.501 21.605,-218.449 -50.702,-287.691l-237.274,117.641" style="fill:#fff;"/><path d="M2063.32,160.317l198.967,-97.422c38.097,37.107 60.353,81.737 66.774,133.89c5.529,44.899 -0.676,95.355 -18.538,151.363c-0.255,0.814 -0.132,1.699 0.336,2.413l76.514,118.083c0.806,1.23 2.289,1.835 3.726,1.521c1.437,-0.316 2.53,-1.486 2.747,-2.941l57.019,-369.732c0.348,-2.34 -0.866,-4.634 -2.997,-5.661l-186.727,-91.193c-2.152,-1.037 -4.7,-0.797 -6.62,0.624l-233.938,171.363c-3.491,2.584 -4.228,7.516 -1.644,11.007c2.584,3.491 7.516,4.227 11.007,1.644l33.374,-24.959Zm1.912,-1.43l196.723,-98.755c0.496,-0.246 1.093,-0.154 1.492,0.228c39.451,37.405 62.659,82.722 69.742,135.896c6.008,45.102 0.396,95.871 -16.831,152.293l71.799,108.434c7.676,-53.281 46.29,-321.285 51.453,-357.121l-180.521,-85.954l-193.857,144.979Z"/></g></g><path d="M2304.88,53.38c-21.2,6.873 -25.46,16.115 -61.39,8.554c-21.462,40.637 -57.009,74.233 -116.426,95.894l-8.766,36.81c64.896,0.74 208.513,115.783 208.513,115.783c37.926,-127.895 36.38,-218.955 -21.931,-257.041" style="fill:none;stroke:#000;stroke-width:12.97px;"/></g></g><g><g><g><path d="M2029.85,784.316c1.644,-0.448 3.402,0.485 3.924,2.082c0.521,1.597 -0.39,3.257 -2.034,3.705c-1.643,0.448 -3.402,-0.485 -3.923,-2.082c-0.522,-1.597 0.389,-3.257 2.033,-3.705Z"/><path d="M2051.88,773.748c1.644,-0.448 3.402,0.485 3.924,2.082c0.521,1.597 -0.39,3.257 -2.034,3.705c-1.644,0.448 -3.402,-0.485 -3.924,-2.082c-0.521,-1.597 0.39,-3.257 2.034,-3.705Z"/><path d="M2073.42,765.599c1.644,-0.447 3.402,0.486 3.924,2.082c0.521,1.598 -0.39,3.258 -2.034,3.705c-1.643,0.448 -3.401,-0.485 -3.923,-2.082c-0.522,-1.597 0.389,-3.257 2.033,-3.705Z"/><path d="M2087.94,759.361c1.644,-0.448 3.402,0.485 3.924,2.082c0.522,1.597 -0.39,3.257 -2.034,3.705c-1.644,0.447 -3.402,-0.486 -3.923,-2.083c-0.522,-1.597 0.389,-3.257 2.033,-3.704Z"/><path d="M2103.39,753.884c1.644,-0.447 3.402,0.486 3.924,2.083c0.522,1.596 -0.389,3.257 -2.033,3.704c-1.644,0.448 -3.402,-0.485 -3.924,-2.082c-0.521,-1.597 0.39,-3.257 2.033,-3.705Z"/></g><g><path d="M2039.33,802.568c1.644,-0.447 3.402,0.486 3.924,2.082c0.521,1.597 -0.39,3.258 -2.033,3.705c-1.644,0.448 -3.402,-0.485 -3.924,-2.082c-0.522,-1.597 0.389,-3.257 2.033,-3.705Z"/><path d="M2061.36,792.005c1.644,-0.447 3.402,0.486 3.924,2.083c0.522,1.596 -0.389,3.257 -2.033,3.704c-1.644,0.448 -3.402,-0.485 -3.924,-2.082c-0.521,-1.597 0.39,-3.257 2.033,-3.705Z"/><path d="M2082.9,783.851c1.644,-0.447 3.402,0.485 3.923,2.082c0.522,1.597 -0.389,3.257 -2.033,3.705c-1.644,0.448 -3.402,-0.485 -3.924,-2.082c-0.522,-1.597 0.39,-3.257 2.034,-3.705Z"/><path d="M2097.43,777.613c1.644,-0.448 3.402,0.485 3.924,2.082c0.521,1.597 -0.39,3.257 -2.033,3.705c-1.644,0.447 -3.402,-0.486 -3.924,-2.083c-0.522,-1.597 0.389,-3.257 2.033,-3.704Z"/><path d="M2112.87,772.136c1.644,-0.447 3.403,0.486 3.924,2.083c0.522,1.597 -0.39,3.257 -2.034,3.705c-1.643,0.447 -3.401,-0.486 -3.923,-2.083c-0.522,-1.597 0.39,-3.257 2.033,-3.705Z"/></g><g><path d="M2049.6,822.345c1.644,-0.448 3.402,0.486 3.924,2.083c0.522,1.597 -0.389,3.257 -2.033,3.705c-1.644,0.447 -3.403,-0.486 -3.924,-2.083c-0.522,-1.597 0.39,-3.257 2.033,-3.705Z"/><path d="M2071.64,811.783c1.644,-0.448 3.402,0.485 3.924,2.082c0.521,1.597 -0.39,3.257 -2.034,3.705c-1.644,0.447 -3.402,-0.485 -3.924,-2.082c-0.521,-1.597 0.39,-3.257 2.034,-3.705Z"/><path d="M2093.18,803.629c1.644,-0.448 3.402,0.485 3.924,2.082c0.521,1.597 -0.39,3.257 -2.034,3.705c-1.643,0.447 -3.401,-0.486 -3.923,-2.082c-0.522,-1.597 0.389,-3.258 2.033,-3.705Z"/><path d="M2107.7,797.39c1.644,-0.448 3.402,0.485 3.924,2.082c0.522,1.597 -0.389,3.257 -2.033,3.705c-1.644,0.448 -3.402,-0.485 -3.924,-2.082c-0.521,-1.597 0.39,-3.257 2.033,-3.705Z"/><path d="M2123.14,791.914c1.644,-0.448 3.403,0.485 3.924,2.082c0.522,1.597 -0.389,3.257 -2.033,3.705c-1.644,0.447 -3.402,-0.485 -3.924,-2.082c-0.521,-1.597 0.39,-3.257 2.033,-3.705Z"/></g></g><g><g><path d="M1936.47,784.316c-1.644,-0.448 -3.402,0.485 -3.924,2.082c-0.521,1.597 0.389,3.257 2.033,3.705c1.644,0.448 3.402,-0.485 3.924,-2.082c0.522,-1.597 -0.389,-3.257 -2.033,-3.705Z"/><path d="M1914.45,773.748c-1.644,-0.448 -3.402,0.485 -3.923,2.082c-0.522,1.597 0.389,3.257 2.033,3.705c1.643,0.448 3.402,-0.485 3.923,-2.082c0.522,-1.597 -0.389,-3.257 -2.033,-3.705Z"/><path d="M1892.9,765.599c-1.644,-0.447 -3.402,0.486 -3.923,2.082c-0.522,1.598 0.389,3.258 2.033,3.705c1.644,0.448 3.402,-0.485 3.924,-2.082c0.522,-1.597 -0.39,-3.257 -2.034,-3.705Z"/><path d="M1878.38,759.361c-1.644,-0.448 -3.402,0.485 -3.924,2.082c-0.521,1.597 0.39,3.257 2.033,3.705c1.644,0.447 3.402,-0.486 3.924,-2.083c0.522,-1.597 -0.389,-3.257 -2.033,-3.704Z"/><path d="M1862.94,753.884c-1.644,-0.447 -3.403,0.486 -3.924,2.083c-0.522,1.596 0.39,3.257 2.033,3.704c1.644,0.448 3.402,-0.485 3.924,-2.082c0.522,-1.597 -0.389,-3.257 -2.033,-3.705Z"/></g><g><path d="M1927,802.568c-1.644,-0.447 -3.402,0.486 -3.924,2.082c-0.521,1.597 0.39,3.258 2.034,3.705c1.644,0.448 3.402,-0.485 3.923,-2.082c0.522,-1.597 -0.389,-3.257 -2.033,-3.705Z"/><path d="M1904.96,792.005c-1.644,-0.447 -3.402,0.486 -3.923,2.083c-0.522,1.596 0.389,3.257 2.033,3.704c1.644,0.448 3.402,-0.485 3.924,-2.082c0.522,-1.597 -0.39,-3.257 -2.034,-3.705Z"/><path d="M1883.42,783.851c-1.643,-0.447 -3.401,0.485 -3.923,2.082c-0.522,1.597 0.389,3.257 2.033,3.705c1.644,0.448 3.402,-0.485 3.923,-2.082c0.522,-1.597 -0.389,-3.257 -2.033,-3.705Z"/><path d="M1868.9,777.613c-1.644,-0.448 -3.402,0.485 -3.924,2.082c-0.522,1.597 0.39,3.257 2.034,3.705c1.644,0.447 3.402,-0.486 3.923,-2.083c0.522,-1.597 -0.389,-3.257 -2.033,-3.704Z"/><path d="M1853.45,772.136c-1.644,-0.447 -3.402,0.486 -3.924,2.083c-0.522,1.597 0.39,3.257 2.034,3.705c1.644,0.447 3.402,-0.486 3.923,-2.083c0.522,-1.597 -0.389,-3.257 -2.033,-3.705Z"/></g><g><path d="M1916.72,822.345c-1.644,-0.448 -3.403,0.486 -3.924,2.083c-0.522,1.597 0.389,3.257 2.033,3.705c1.644,0.447 3.402,-0.486 3.924,-2.083c0.522,-1.597 -0.389,-3.257 -2.033,-3.705Z"/><path d="M1894.69,811.783c-1.644,-0.448 -3.402,0.485 -3.924,2.082c-0.522,1.597 0.39,3.257 2.034,3.705c1.643,0.447 3.402,-0.485 3.923,-2.082c0.522,-1.597 -0.389,-3.257 -2.033,-3.705Z"/><path d="M1873.15,803.629c-1.644,-0.448 -3.402,0.485 -3.924,2.082c-0.521,1.597 0.39,3.257 2.034,3.705c1.644,0.447 3.402,-0.486 3.923,-2.082c0.522,-1.597 -0.389,-3.258 -2.033,-3.705Z"/><path d="M1858.63,797.39c-1.644,-0.448 -3.402,0.485 -3.923,2.082c-0.522,1.597 0.389,3.257 2.033,3.705c1.644,0.448 3.402,-0.485 3.924,-2.082c0.522,-1.597 -0.39,-3.257 -2.034,-3.705Z"/><path d="M1843.18,791.914c-1.644,-0.448 -3.402,0.485 -3.923,2.082c-0.522,1.597 0.389,3.257 2.033,3.705c1.644,0.447 3.402,-0.485 3.924,-2.082c0.521,-1.597 -0.39,-3.257 -2.034,-3.705Z"/></g></g></g><g><path d="M1975.2,101.821l66.218,110.997l-66.218,110.997l-66.217,-110.997l66.217,-110.997Z" style="fill:#930df2;"/><g><clipPath id="_clip9"><path d="M1975.2,101.821l66.218,110.997l-66.218,110.997l-66.217,-110.997l66.217,-110.997Z"/></clipPath><g clip-path="url(#_clip9)"><path d="M1908.98,212.818l66.218,26.974l66.218,-26.974l-66.888,106.203l-65.548,-106.203l66.218,-105.476l-0,132.45l66.218,-26.974l-66.218,-105.476l-0,212.022" style="fill:none;stroke:#fff;stroke-width:7.41px;"/></g></g></g></g></g></g><path d="M554.415,2712.49c-145.033,-67.489 -145.285,-68.014 -218.02,-107.91c-111.569,-189.944 -136.861,-241.418 -229.689,-398.619c-59.211,-290.558 -66.155,-357.88 -101.15,-665.629c32.731,-123.275 51.93,-176.807 81.179,-264.269c42.899,-18.277 89.117,-32.53 133.285,-51.171c67.215,15.336 107.859,21.477 164.301,37.065c36.049,140.239 31.057,224.843 52.199,303.624c-9.512,37.38 -83.441,52.632 -131.101,16.666c-29.393,-76.163 19.867,-191.299 -73.985,-191.299c-51.657,0 -66.479,80.687 -65.474,155.528c2.788,207.503 6.822,229.252 24.008,416.108c16.97,91.635 50.166,190.626 84.329,236.303c27.044,36.159 90.556,103.686 116.294,133.126c50.764,382.282 305.972,218.521 693.752,267.363c56.8,-1.316 57.581,0.564 95.003,4.31c27.798,15.236 35.107,21.748 66.515,43.346c-0.014,18.688 -0.694,25.852 -0,52.6c-10.668,14.953 -19.501,25.203 -37.875,42.091c-65.731,17.101 -209.96,-3.562 -380.842,5.378c-93.457,4.89 -151.184,-39.638 -272.729,-34.611" style="fill:#fff;"/><clipPath id="_clip10"><path d="M554.415,2712.49c-145.033,-67.489 -145.285,-68.014 -218.02,-107.91c-111.569,-189.944 -136.861,-241.418 -229.689,-398.619c-59.211,-290.558 -66.155,-357.88 -101.15,-665.629c32.731,-123.275 51.93,-176.807 81.179,-264.269c42.899,-18.277 89.117,-32.53 133.285,-51.171c67.215,15.336 107.859,21.477 164.301,37.065c36.049,140.239 31.057,224.843 52.199,303.624c-9.512,37.38 -83.441,52.632 -131.101,16.666c-29.393,-76.163 19.867,-191.299 -73.985,-191.299c-51.657,0 -66.479,80.687 -65.474,155.528c2.788,207.503 6.822,229.252 24.008,416.108c16.97,91.635 50.166,190.626 84.329,236.303c27.044,36.159 90.556,103.686 116.294,133.126c50.764,382.282 305.972,218.521 693.752,267.363c56.8,-1.316 57.581,0.564 95.003,4.31c27.798,15.236 35.107,21.748 66.515,43.346c-0.014,18.688 -0.694,25.852 -0,52.6c-10.668,14.953 -19.501,25.203 -37.875,42.091c-65.731,17.101 -209.96,-3.562 -380.842,5.378c-93.457,4.89 -151.184,-39.638 -272.729,-34.611"/></clipPath><g clip-path="url(#_clip10)"><path d="M382.178,2291.45c18.894,64.694 80.089,395.092 172.237,419.672c-45.327,-4.639 -95.754,-35.231 -132.872,-80.565c-75.815,-159.063 -121.648,-303.754 -153.532,-447.185l114.167,108.078Z"/><path d="M249.565,1999.88c-50.964,36.481 2.024,576.844 91.769,609.113c-174.45,-168.42 -167.559,-581.131 -175.374,-811.128l83.605,202.015"/><path d="M185.238,1724.86c-7.149,51.842 -95.852,445.839 -9.135,617.125c-179.288,-215.206 -16.23,-685.232 -12.196,-795.512l21.331,178.387"/><path d="M63.567,2094.07c-18.035,-313.444 19.475,-656.215 102.393,-612.527l87.687,-88.703c-109.382,-54.475 -216.696,15.198 -228.64,654.426l38.56,46.804Z"/><path d="M185.238,1226.73c64.023,50.098 106.329,185.982 106.136,273.026c59.668,-103.393 105.649,-271.645 -37.727,-273.026l-68.409,-0"/><path d="M462.018,1452.3l-125.623,171.119l127.51,4.946l-1.887,-176.065"/></g><path d="M554.415,2712.49c-145.033,-67.489 -145.285,-68.014 -218.02,-107.91c-111.569,-189.944 -136.861,-241.418 -229.689,-398.619c-59.211,-290.558 -66.155,-357.88 -101.15,-665.629c32.731,-123.275 51.93,-176.807 81.179,-264.269c42.899,-18.277 89.117,-32.53 133.285,-51.171c67.215,15.336 107.859,21.477 164.301,37.065c36.049,140.239 31.057,224.843 52.199,303.624c-9.512,37.38 -83.441,52.632 -131.101,16.666c-29.393,-76.163 19.867,-191.299 -73.985,-191.299c-51.657,0 -66.479,80.687 -65.474,155.528c2.788,207.503 6.822,229.252 24.008,416.108c16.97,91.635 50.166,190.626 84.329,236.303c27.044,36.159 90.556,103.686 116.294,133.126c50.764,382.282 305.972,218.521 693.752,267.363c56.8,-1.316 57.581,0.564 95.003,4.31c27.798,15.236 35.107,21.748 66.515,43.346c-0.014,18.688 -0.694,25.852 -0,52.6c-10.668,14.953 -19.501,25.203 -37.875,42.091c-65.731,17.101 -209.96,-3.562 -380.842,5.378c-93.457,4.89 -151.184,-39.638 -272.729,-34.611" style="fill:none;stroke:#000;stroke-width:11.11px;"/><g><path d="M747.342,2476.89c-145.033,-67.489 142.147,-161.956 529.927,-113.115c56.801,-1.316 57.581,0.564 95.004,4.31c27.797,15.236 35.106,21.749 66.514,43.347c-0.014,18.688 -0.694,25.852 -0,52.599c-10.667,14.953 -19.501,25.204 -37.874,42.092c-147.732,-0 -206.343,7.024 -427.872,7.024c-223.692,-34.904 -1.655,-2.492 -225.699,-36.257" style="fill:#fff;"/><clipPath id="_clip11"><path d="M747.342,2476.89c-145.033,-67.489 142.147,-161.956 529.927,-113.115c56.801,-1.316 57.581,0.564 95.004,4.31c27.797,15.236 35.106,21.749 66.514,43.347c-0.014,18.688 -0.694,25.852 -0,52.599c-10.667,14.953 -19.501,25.204 -37.874,42.092c-147.732,-0 -206.343,7.024 -427.872,7.024c-223.692,-34.904 -1.655,-2.492 -225.699,-36.257"/></clipPath><g clip-path="url(#_clip11)"><path d="M575.104,2055.85c18.894,64.695 80.089,395.093 172.238,419.673c-45.327,-4.639 -95.755,-35.232 -132.872,-80.565c-75.816,-159.063 -121.648,-303.754 -153.533,-447.186l114.167,108.078Z"/><path d="M442.491,1764.29c-50.963,36.48 2.025,576.843 91.77,609.113c-174.45,-168.421 -167.56,-581.131 -175.375,-811.128l83.605,202.015"/><path d="M378.165,1489.26c-7.149,51.842 -95.853,445.839 -9.135,617.125c-179.288,-215.207 -16.231,-685.232 -12.196,-795.513l21.331,178.388"/><path d="M256.494,1858.48c-18.035,-313.444 19.474,-656.216 102.392,-612.528l87.687,-88.702c-109.381,-54.475 -216.696,15.198 -228.64,654.426l38.561,46.804Z"/><path d="M378.165,991.132c64.022,50.098 106.328,185.983 106.136,273.027c59.667,-103.393 105.648,-271.645 -37.728,-273.027l-68.408,0"/><path d="M654.944,1216.7l-125.623,171.119l127.511,4.946l-1.888,-176.065"/></g><path d="M747.342,2476.89c-145.033,-67.489 142.147,-161.956 529.927,-113.115c56.801,-1.316 57.581,0.564 95.004,4.31c27.797,15.236 35.106,21.749 66.514,43.347c-0.014,18.688 -0.694,25.852 -0,52.599c-10.667,14.953 -19.501,25.204 -37.874,42.092c-147.732,-0 -206.343,7.024 -427.872,7.024c-223.692,-34.904 -1.655,-2.492 -225.699,-36.257" style="fill:none;stroke:#000;stroke-width:11.11px;"/><path d="M711.231,2529.67c-145.033,-67.49 142.147,-161.956 529.927,-113.115c56.801,-1.316 57.581,0.564 95.003,4.31c27.798,15.236 35.107,21.748 66.515,43.347c-0.014,18.688 -0.694,25.852 -0,52.599c-10.668,14.953 -19.501,25.203 -37.875,42.092c-147.731,-0 -206.342,7.024 -427.871,7.024c-223.692,-34.904 -1.655,-2.492 -225.699,-36.257" style="fill:#fff;"/><clipPath id="_clip12"><path d="M711.231,2529.67c-145.033,-67.49 142.147,-161.956 529.927,-113.115c56.801,-1.316 57.581,0.564 95.003,4.31c27.798,15.236 35.107,21.748 66.515,43.347c-0.014,18.688 -0.694,25.852 -0,52.599c-10.668,14.953 -19.501,25.203 -37.875,42.092c-147.731,-0 -206.342,7.024 -427.871,7.024c-223.692,-34.904 -1.655,-2.492 -225.699,-36.257"/></clipPath><g clip-path="url(#_clip12)"><path d="M538.993,2108.63c18.894,64.695 80.089,395.093 172.238,419.673c-45.327,-4.639 -95.755,-35.232 -132.873,-80.565c-75.815,-159.063 -121.647,-303.754 -153.532,-447.186l114.167,108.078Z"/><path d="M406.38,1817.06c-50.964,36.481 2.025,576.844 91.769,609.114c-174.449,-168.421 -167.559,-581.131 -175.374,-811.128l83.605,202.014"/><path d="M342.054,1542.04c-7.149,51.842 -95.853,445.838 -9.136,617.125c-179.287,-215.207 -16.23,-685.233 -12.195,-795.513l21.331,178.388"/><path d="M220.382,1911.25c-18.034,-313.443 19.475,-656.215 102.393,-612.527l87.687,-88.703c-109.382,-54.474 -216.696,15.199 -228.64,654.427l38.56,46.803Z"/><path d="M342.054,1043.91c64.022,50.098 106.328,185.983 106.136,273.026c59.667,-103.392 105.648,-271.644 -37.728,-273.026l-68.408,0"/><path d="M618.833,1269.48l-125.623,171.118l127.511,4.946l-1.888,-176.064"/></g><path d="M711.231,2529.67c-145.033,-67.49 142.147,-161.956 529.927,-113.115c56.801,-1.316 57.581,0.564 95.003,4.31c27.798,15.236 35.107,21.748 66.515,43.347c-0.014,18.688 -0.694,25.852 -0,52.599c-10.668,14.953 -19.501,25.203 -37.875,42.092c-147.731,-0 -206.342,7.024 -427.871,7.024c-223.692,-34.904 -1.655,-2.492 -225.699,-36.257" style="fill:none;stroke:#000;stroke-width:11.11px;"/><path d="M677.897,2579.67c-145.033,-67.49 142.148,-161.956 529.928,-113.115c56.8,-1.316 57.581,0.564 95.003,4.31c27.798,15.236 35.107,21.748 66.514,43.347c-0.014,18.688 -0.694,25.852 0,52.599c-10.667,14.953 -19.5,25.203 -37.874,42.092c-147.731,-0 -206.343,7.024 -427.872,7.024c-223.692,-34.904 -1.655,-2.492 -225.699,-36.257" style="fill:#fff;"/><clipPath id="_clip13"><path d="M677.897,2579.67c-145.033,-67.49 142.148,-161.956 529.928,-113.115c56.8,-1.316 57.581,0.564 95.003,4.31c27.798,15.236 35.107,21.748 66.514,43.347c-0.014,18.688 -0.694,25.852 0,52.599c-10.667,14.953 -19.5,25.203 -37.874,42.092c-147.731,-0 -206.343,7.024 -427.872,7.024c-223.692,-34.904 -1.655,-2.492 -225.699,-36.257"/></clipPath><g clip-path="url(#_clip13)"><path d="M505.66,2158.63c18.894,64.695 80.089,395.093 172.237,419.673c-45.327,-4.639 -95.754,-35.232 -132.872,-80.565c-75.815,-159.063 -121.648,-303.754 -153.532,-447.186l114.167,108.078Z"/><path d="M373.047,1867.06c-50.964,36.481 2.024,576.844 91.769,609.114c-174.45,-168.421 -167.559,-581.131 -175.374,-811.128l83.605,202.014"/><path d="M308.72,1592.04c-7.149,51.842 -95.852,445.838 -9.135,617.125c-179.288,-215.207 -16.23,-685.233 -12.196,-795.513l21.331,178.388"/><path d="M187.049,1961.25c-18.035,-313.443 19.475,-656.215 102.393,-612.527l87.687,-88.703c-109.382,-54.474 -216.696,15.199 -228.64,654.427l38.56,46.803Z"/><path d="M308.72,1093.91c64.023,50.098 106.329,185.983 106.136,273.026c59.667,-103.392 105.649,-271.644 -37.727,-273.026l-68.409,0"/><path d="M585.5,1319.48l-125.623,171.118l127.51,4.946l-1.887,-176.064"/></g><path d="M677.897,2579.67c-145.033,-67.49 142.148,-161.956 529.928,-113.115c56.8,-1.316 57.581,0.564 95.003,4.31c27.798,15.236 35.107,21.748 66.514,43.347c-0.014,18.688 -0.694,25.852 0,52.599c-10.667,14.953 -19.5,25.203 -37.874,42.092c-147.731,-0 -206.343,7.024 -427.872,7.024c-223.692,-34.904 -1.655,-2.492 -225.699,-36.257" style="fill:none;stroke:#000;stroke-width:11.11px;"/></g><g><path d="M623.86,2609.71c-145.033,-67.49 142.147,-161.956 529.927,-113.115c56.801,-1.316 57.582,0.564 95.004,4.31c27.797,15.236 35.106,21.748 66.514,43.346c-0.014,18.688 -0.694,25.853 0,52.6c-10.667,14.953 -19.501,25.203 -37.874,42.091c-147.731,0 -206.343,7.025 -427.872,7.025c-223.692,-34.905 -1.655,-2.493 -225.699,-36.257" style="fill:#fff;"/><clipPath id="_clip14"><path d="M623.86,2609.71c-145.033,-67.49 142.147,-161.956 529.927,-113.115c56.801,-1.316 57.582,0.564 95.004,4.31c27.797,15.236 35.106,21.748 66.514,43.346c-0.014,18.688 -0.694,25.853 0,52.6c-10.667,14.953 -19.501,25.203 -37.874,42.091c-147.731,0 -206.343,7.025 -427.872,7.025c-223.692,-34.905 -1.655,-2.493 -225.699,-36.257"/></clipPath><g clip-path="url(#_clip14)"><path d="M451.622,2188.67c18.895,64.694 80.09,395.093 172.238,419.672c-45.327,-4.639 -95.755,-35.231 -132.872,-80.564c-75.816,-159.063 -121.648,-303.754 -153.533,-447.186l114.167,108.078Z"/><path d="M319.009,1897.1c-50.963,36.481 2.025,576.844 91.77,609.114c-174.45,-168.421 -167.56,-581.132 -175.375,-811.129l83.605,202.015"/><path d="M254.683,1622.08c-7.149,51.842 -95.853,445.839 -9.135,617.126c-179.288,-215.207 -16.231,-685.233 -12.196,-795.513l21.331,178.387"/><path d="M133.012,1991.3c-18.035,-313.443 19.474,-656.215 102.392,-612.527l87.688,-88.703c-109.382,-54.474 -216.696,15.198 -228.641,654.427l38.561,46.803Z"/><path d="M254.683,1123.95c64.022,50.098 106.328,185.983 106.136,273.026c59.667,-103.392 105.648,-271.645 -37.727,-273.026l-68.409,-0"/><path d="M531.462,1349.52l-125.623,171.118l127.511,4.946l-1.888,-176.064"/></g><path d="M623.86,2609.71c-145.033,-67.49 142.147,-161.956 529.927,-113.115c56.801,-1.316 57.582,0.564 95.004,4.31c27.797,15.236 35.106,21.748 66.514,43.346c-0.014,18.688 -0.694,25.853 0,52.6c-10.667,14.953 -19.501,25.203 -37.874,42.091c-147.731,0 -206.343,7.025 -427.872,7.025c-223.692,-34.905 -1.655,-2.493 -225.699,-36.257" style="fill:none;stroke:#000;stroke-width:11.11px;"/><path d="M587.749,2662.49c-145.033,-67.489 142.147,-161.956 529.927,-113.114c56.801,-1.316 57.581,0.564 95.004,4.31c27.797,15.236 35.106,21.748 66.514,43.346c-0.014,18.688 -0.694,25.852 -0,52.6c-10.667,14.953 -19.501,25.203 -37.874,42.091c-147.732,0 -206.343,7.025 -427.872,7.025c-223.692,-34.905 -1.655,-2.493 -225.699,-36.258" style="fill:#fff;"/><clipPath id="_clip15"><path d="M587.749,2662.49c-145.033,-67.489 142.147,-161.956 529.927,-113.114c56.801,-1.316 57.581,0.564 95.004,4.31c27.797,15.236 35.106,21.748 66.514,43.346c-0.014,18.688 -0.694,25.852 -0,52.6c-10.667,14.953 -19.501,25.203 -37.874,42.091c-147.732,0 -206.343,7.025 -427.872,7.025c-223.692,-34.905 -1.655,-2.493 -225.699,-36.258"/></clipPath><g clip-path="url(#_clip15)"><path d="M415.511,2241.45c18.894,64.694 80.089,395.092 172.238,419.672c-45.327,-4.639 -95.755,-35.231 -132.872,-80.565c-75.816,-159.063 -121.648,-303.754 -153.533,-447.185l114.167,108.078Z"/><path d="M282.898,1949.88c-50.963,36.481 2.025,576.844 91.77,609.113c-174.45,-168.42 -167.56,-581.131 -175.375,-811.128l83.605,202.015"/><path d="M218.572,1674.86c-7.149,51.842 -95.853,445.839 -9.135,617.125c-179.288,-215.206 -16.231,-685.232 -12.196,-795.512l21.331,178.387"/><path d="M96.901,2044.07c-18.035,-313.444 19.474,-656.215 102.392,-612.527l87.687,-88.703c-109.381,-54.475 -216.696,15.198 -228.64,654.426l38.561,46.804Z"/><path d="M218.572,1176.73c64.022,50.098 106.328,185.982 106.136,273.026c59.667,-103.393 105.648,-271.645 -37.728,-273.026l-68.408,-0"/><path d="M495.351,1402.3l-125.623,171.119l127.511,4.946l-1.888,-176.065"/></g><path d="M587.749,2662.49c-145.033,-67.489 142.147,-161.956 529.927,-113.114c56.801,-1.316 57.581,0.564 95.004,4.31c27.797,15.236 35.106,21.748 66.514,43.346c-0.014,18.688 -0.694,25.852 -0,52.6c-10.667,14.953 -19.501,25.203 -37.874,42.091c-147.732,0 -206.343,7.025 -427.872,7.025c-223.692,-34.905 -1.655,-2.493 -225.699,-36.258" style="fill:none;stroke:#000;stroke-width:11.11px;"/><path d="M554.415,2712.49c-145.033,-67.489 142.148,-161.956 529.928,-113.114c56.8,-1.316 57.581,0.564 95.003,4.31c27.798,15.236 35.107,21.748 66.515,43.346c-0.014,18.688 -0.694,25.852 -0,52.6c-10.668,14.953 -19.501,25.203 -37.875,42.091c-147.731,0 -206.343,7.025 -427.871,7.025c-223.693,-34.905 -1.656,-2.493 -225.7,-36.258" style="fill:#fff;"/><clipPath id="_clip16"><path d="M554.415,2712.49c-145.033,-67.489 142.148,-161.956 529.928,-113.114c56.8,-1.316 57.581,0.564 95.003,4.31c27.798,15.236 35.107,21.748 66.515,43.346c-0.014,18.688 -0.694,25.852 -0,52.6c-10.668,14.953 -19.501,25.203 -37.875,42.091c-147.731,0 -206.343,7.025 -427.871,7.025c-223.693,-34.905 -1.656,-2.493 -225.7,-36.258"/></clipPath><g clip-path="url(#_clip16)"><path d="M382.178,2291.45c18.894,64.694 80.089,395.092 172.237,419.672c-45.327,-4.639 -95.754,-35.231 -132.872,-80.565c-75.815,-159.063 -121.648,-303.754 -153.532,-447.185l114.167,108.078Z"/><path d="M249.565,1999.88c-50.964,36.481 2.024,576.844 91.769,609.113c-174.45,-168.42 -167.559,-581.131 -175.374,-811.128l83.605,202.015"/><path d="M185.238,1724.86c-7.149,51.842 -95.852,445.839 -9.135,617.125c-179.288,-215.206 -16.23,-685.232 -12.196,-795.512l21.331,178.387"/><path d="M63.567,2094.07c-18.035,-313.444 19.475,-656.215 102.393,-612.527l87.687,-88.703c-109.382,-54.475 -216.696,15.198 -228.64,654.426l38.56,46.804Z"/><path d="M185.238,1226.73c64.023,50.098 106.329,185.982 106.136,273.026c59.668,-103.393 105.649,-271.645 -37.727,-273.026l-68.409,-0"/><path d="M462.018,1452.3l-125.623,171.119l127.51,4.946l-1.887,-176.065"/></g><path d="M554.415,2712.49c-145.033,-67.489 142.148,-161.956 529.928,-113.114c56.8,-1.316 57.581,0.564 95.003,4.31c27.798,15.236 35.107,21.748 66.515,43.346c-0.014,18.688 -0.694,25.852 -0,52.6c-10.668,14.953 -19.501,25.203 -37.875,42.091c-147.731,0 -206.343,7.025 -427.871,7.025c-223.693,-34.905 -1.656,-2.493 -225.7,-36.258" style="fill:none;stroke:#000;stroke-width:11.11px;"/></g><path d="M1310.56,2210.39c-30.444,-20.711 -126.619,-75.978 -300.479,-158.146c-174.129,36.718 -221.98,44.681 -398.844,92.752c-29.291,25.761 -65.702,60.413 -109.959,100.211c-30.667,51.245 -52.22,87.369 -122.257,194.319c10.553,46.721 23.1,106.183 54.995,180.864c52.71,43.123 63.351,51.529 133.576,96.099c82.605,16.172 101.387,18.736 210.29,31.128c178.237,-71.829 226.53,-96.83 330.551,-152.49c87.772,-78.384 105.533,-92.194 167.991,-158.364c18.851,-79.119 24.004,-140.11 34.136,-226.373Z" style="fill:#fff;stroke:#000;stroke-width:11.11px;"/></g></svg>